<svg width="260" height="26" viewBox="0 0 260 26" fill="none" xmlns="http://www.w3.org/2000/svg">
<g clip-path="url(#clip0_17_47)">
<g clip-path="url(#clip1_17_47)">
<path d="M4.81224 24.7366C4.60325 25.2269 4.13146 25.4986 3.66143 25.4986H0.249563C0.111113 25.4986 0 25.3866 0 25.249C0 25.2146 0.00705478 25.1811 0.0202825 25.1511L8.50101 5.17108C8.54863 5.0582 8.65269 5 8.75675 5C8.86081 5 8.96398 5.0582 9.01248 5.1702L10.9367 9.70378C10.979 9.80254 10.9993 9.90484 10.9993 10.0045C10.9993 10.1041 10.9781 10.2108 10.9367 10.3096L4.81224 24.7366Z" fill="#010101"/>
<path d="M24.4105 25.4988C24.8796 25.4988 25.3523 25.2281 25.5613 24.7369L31.6849 10.3099C31.7272 10.2111 31.7475 10.1088 31.7475 10.0074C31.7475 9.90598 31.7263 9.80368 31.6849 9.70492L29.7607 5.17134C29.713 5.05846 29.609 5.00114 29.5049 5.00114C29.4009 5.00114 29.2977 5.05934 29.2492 5.17222L23.0472 19.7827L15.1872 1.26387C14.9782 0.77268 14.5056 0.501953 14.0364 0.501953H10.6246C10.4861 0.501953 10.375 0.613948 10.375 0.751516C10.375 0.785908 10.3821 0.819418 10.3953 0.849401L20.5348 24.7378C20.7438 25.2281 21.2156 25.4997 21.6856 25.4997L24.4105 25.4988Z" fill="#010101"/>
<path d="M35.9324 1.26399C35.7242 0.772803 35.2516 0.502075 34.7815 0.502075H31.3697C31.2312 0.502075 31.1201 0.61407 31.1201 0.751638C31.1201 0.78603 31.1272 0.81954 31.1404 0.849523L39.3019 20.0773C40.6564 23.2635 43.7932 25.4989 47.4934 25.4989C49.0913 25.4989 50.6142 25.0712 51.9176 24.3234C52.0446 24.2502 52.1187 24.1153 52.1187 23.9769C52.1187 23.924 52.109 23.8719 52.0869 23.8208L50.7227 20.6056C50.6231 20.371 50.3338 20.2899 50.1275 20.4318C49.3788 20.9468 48.4714 21.2484 47.4943 21.2484C45.571 21.2484 43.9219 20.0809 43.2147 18.4159L35.9324 1.26399Z" fill="#010101"/>
<path d="M59.0545 24.7379C59.2635 25.2282 59.7353 25.4998 60.2053 25.4998H63.6172C63.7556 25.4998 63.8667 25.3878 63.8667 25.2503C63.8667 25.2159 63.8597 25.1824 63.8464 25.1524L55.6849 5.92456C54.3313 2.73756 51.1946 0.502075 47.4935 0.502075C45.8955 0.502075 44.3726 0.929771 43.0692 1.67758C42.9422 1.75077 42.8682 1.88569 42.8682 2.02414C42.8682 2.07706 42.8779 2.12908 42.8999 2.18023L44.2641 5.39545C44.3638 5.63002 44.653 5.71115 44.8594 5.56917C45.6081 5.05417 46.5155 4.75258 47.4926 4.75258C49.4159 4.75258 51.0649 5.92015 51.7722 7.58508L59.0536 24.7388L59.0545 24.7379Z" fill="#010101"/>
<path d="M70.5801 0.501953C70.111 0.501953 69.6383 0.77268 69.4293 1.26387L63.3058 15.6909C63.2634 15.7897 63.2432 15.892 63.2432 15.9934C63.2432 16.0921 63.2643 16.1971 63.3058 16.2958L65.23 20.8294C65.2776 20.9423 65.3816 20.9996 65.4857 20.9996C65.5898 20.9996 65.6929 20.9414 65.7414 20.8285L71.9435 6.21809L79.8043 24.7369C80.0133 25.2272 80.4851 25.4988 80.9551 25.4988H84.367C84.5054 25.4988 84.6165 25.3868 84.6165 25.2493C84.6165 25.2149 84.6095 25.1813 84.5962 25.1514L74.4559 1.26387C74.2469 0.77268 73.7742 0.501953 73.3051 0.501953H70.5801Z" fill="#010101"/>
<path d="M90.1772 1.26399C90.3853 0.772803 90.858 0.502075 91.3271 0.502075H94.739C94.8774 0.502075 94.9885 0.61407 94.9885 0.751638C94.9885 0.78603 94.9815 0.81954 94.9683 0.849523L86.4875 20.8287C86.4399 20.9415 86.3359 20.9997 86.2318 20.9997C86.1277 20.9997 86.0246 20.9415 85.9761 20.8295L84.0519 16.296C84.0095 16.1972 83.9893 16.0949 83.9893 15.9953C83.9893 15.893 84.0104 15.7889 84.0519 15.6901L90.1772 1.26399Z" fill="#010101"/>
<path d="M106.662 22.1302C106.662 21.4873 106.645 21.3965 106.63 20.8735C106.749 20.8947 106.843 20.9053 106.914 20.9053C106.986 20.9053 107.081 20.8947 107.198 20.8735C108.826 22.6804 109.791 23.721 109.938 23.8806V23.3312C109.938 22.5244 109.941 21.1099 109.894 20.8744C110.012 20.8956 110.107 20.9062 110.178 20.9062C110.25 20.9062 110.345 20.8956 110.462 20.8744C110.361 22.6963 110.361 23.6081 110.361 24.4556V25.214C110.276 25.2052 110.19 25.2016 110.101 25.2016C110.012 25.2016 109.927 25.206 109.855 25.214C108.988 24.2034 108.07 23.1866 107.097 22.1628C107.092 22.3109 107.085 22.5693 107.085 22.9018C107.085 23.7819 107.078 24.7378 107.122 25.214C107.032 25.199 106.982 25.2016 106.825 25.2016C106.728 25.2016 106.631 25.206 106.535 25.214C106.562 25.1046 106.661 23.363 106.661 22.131L106.662 22.1302ZM114.998 25.2131C114.813 25.1972 114.724 25.2008 114.443 25.2008C114.161 25.2008 114.067 25.1981 113.906 25.2131C113.839 25.0068 113.769 24.796 113.698 24.5817C113.626 24.3665 113.55 24.1522 113.47 23.9371C113.104 23.9256 112.825 23.9247 112.661 23.9247C112.529 23.9247 112.302 23.9265 112.004 23.9371C111.92 24.1522 111.842 24.3665 111.771 24.5817C111.699 24.7969 111.634 25.0068 111.575 25.2131C111.484 25.1981 111.439 25.2008 111.278 25.2008C111.116 25.2008 111.07 25.1981 110.962 25.2131C111.196 24.7078 111.477 24.0182 111.767 23.3154C111.883 23.0349 111.999 22.7519 112.115 22.4661C112.508 21.4926 112.632 21.1804 112.762 20.8435C112.895 20.87 112.94 20.8735 113.002 20.8735C113.063 20.8735 113.11 20.87 113.242 20.8435C113.377 21.2016 113.52 21.5834 113.675 21.9917C113.828 22.4 113.983 22.8012 114.138 23.1954C114.702 24.6187 114.898 25.0147 114.997 25.214L114.998 25.2131ZM112.763 22.0614C112.653 22.3145 112.55 22.5632 112.453 22.8101C112.356 23.0561 112.262 23.3083 112.169 23.5649H113.325C113.233 23.3083 113.141 23.0561 113.05 22.8101C112.959 22.564 112.864 22.3145 112.763 22.0614ZM126.06 22.131C126.06 21.4882 126.043 21.3973 126.028 20.8744C126.147 20.8956 126.241 20.9062 126.312 20.9062C126.384 20.9062 126.479 20.8956 126.596 20.8744C128.224 22.6813 129.189 23.7219 129.336 23.8815V23.3321C129.336 22.5252 129.339 21.1107 129.292 20.8753C129.41 20.8965 129.505 20.907 129.576 20.907C129.648 20.907 129.743 20.8965 129.86 20.8753C129.76 22.6972 129.759 23.609 129.759 24.4565V25.2149C129.674 25.206 129.588 25.2025 129.499 25.2025C129.41 25.2025 129.325 25.2069 129.253 25.2149C128.386 24.2043 127.468 23.1875 126.495 22.1637C126.49 22.3118 126.483 22.5702 126.483 22.9027C126.483 23.7827 126.476 24.7387 126.52 25.2149C126.43 25.1999 126.38 25.2025 126.223 25.2025C126.126 25.2025 126.029 25.2069 125.933 25.2149C125.961 25.1055 126.059 23.3639 126.059 22.1319L126.06 22.131ZM134.396 25.214C134.211 25.1981 134.122 25.2016 133.841 25.2016C133.559 25.2016 133.465 25.199 133.304 25.214C133.237 25.0076 133.167 24.7969 133.096 24.5826C133.024 24.3674 132.948 24.1531 132.868 23.938C132.502 23.9265 132.223 23.9256 132.059 23.9256C131.927 23.9256 131.7 23.9274 131.402 23.938C131.318 24.1531 131.24 24.3674 131.169 24.5826C131.097 24.7978 131.032 25.0076 130.973 25.214C130.882 25.199 130.837 25.2016 130.676 25.2016C130.514 25.2016 130.468 25.199 130.36 25.214C130.594 24.7087 130.875 24.0191 131.165 23.3162C131.281 23.0358 131.397 22.7527 131.513 22.467C131.906 21.4935 132.03 21.1813 132.16 20.8444C132.293 20.8709 132.338 20.8744 132.4 20.8744C132.461 20.8744 132.508 20.8709 132.64 20.8444C132.775 21.2025 132.918 21.5843 133.073 21.9926C133.226 22.4009 133.381 22.8021 133.536 23.1963C134.1 24.6196 134.296 25.0156 134.395 25.2149L134.396 25.214ZM132.161 22.0623C132.051 22.3154 131.948 22.564 131.851 22.8109C131.754 23.057 131.66 23.3092 131.567 23.5658H132.723C132.631 23.3092 132.539 23.057 132.448 22.8109C132.357 22.5649 132.262 22.3154 132.161 22.0623ZM115.877 21.3488C115.813 21.3488 115.232 21.3603 114.717 21.4309C114.743 21.2906 114.749 21.2227 114.749 21.1531C114.749 21.0834 114.743 21.0155 114.717 20.8753C115.013 20.8841 115.525 20.907 116.363 20.907C117.202 20.907 117.716 20.8841 117.972 20.8753C117.944 21.0287 117.94 21.0975 117.94 21.1531C117.94 21.2086 117.944 21.2783 117.972 21.4309C117.571 21.3709 117.004 21.3488 116.844 21.3488C116.828 21.4291 116.832 21.5869 116.832 21.9044V23.4838C116.832 24.0984 116.844 24.6258 116.882 25.2149C116.751 25.199 116.668 25.2025 116.364 25.2025C116.061 25.2025 115.977 25.1999 115.847 25.2149C115.885 24.6134 115.897 24.087 115.897 23.4838V21.9044C115.897 21.4926 115.887 21.4026 115.877 21.3488ZM118.644 20.8753C118.877 20.9026 119.038 20.907 119.165 20.907C119.292 20.907 119.448 20.9026 119.682 20.8753C119.643 21.5032 119.632 22.0191 119.632 22.6249V23.4838C119.632 24.0984 119.643 24.6258 119.682 25.2149C119.551 25.199 119.469 25.2025 119.165 25.2025C118.861 25.2025 118.775 25.1999 118.644 25.2149C118.683 24.6134 118.697 24.087 118.697 23.4838V22.6249C118.697 22.1019 118.686 21.5684 118.644 20.8753ZM120.445 23.0543C120.445 22.0041 121.214 20.788 122.869 20.788C123.999 20.788 125.261 21.3506 125.261 23.0473C125.261 24.1117 124.461 25.3004 122.849 25.3004C120.378 25.3004 120.445 23.2474 120.445 23.0543ZM124.226 22.9212C124.226 21.6593 123.52 21.1548 122.849 21.1548C121.909 21.1548 121.48 22.1531 121.48 23.117C121.48 24.4953 122.123 24.9336 122.805 24.9336C122.834 24.9336 124.226 25.0015 124.226 22.9212ZM134.895 20.8753C135.128 20.9026 135.287 20.907 135.413 20.907C135.539 20.907 135.698 20.9026 135.931 20.8753C135.892 21.5032 135.88 22.0191 135.88 22.6249V23.4838C135.88 23.8665 135.883 24.3771 135.893 24.7598C136.624 24.7598 137.128 24.7043 137.347 24.6778C137.326 24.7951 137.321 24.8542 137.321 24.9618C137.321 25.0694 137.327 25.154 137.347 25.2149C137.01 25.2025 136.514 25.2025 136.234 25.2025H135.609C135.156 25.2025 135.015 25.1999 134.895 25.2149C134.934 24.6134 134.946 24.087 134.946 23.4838V22.6249C134.946 22.1019 134.938 21.5684 134.895 20.8753ZM140.376 23.7995C140.343 24.2713 140.318 24.7431 140.284 25.2149C140.194 25.1999 140.144 25.2025 139.987 25.2025C139.83 25.2025 139.781 25.1999 139.69 25.2149C139.825 24.4909 139.935 23.7704 140.041 23.0543C140.146 22.3383 140.243 21.6116 140.331 20.8753C140.48 20.9026 140.522 20.907 140.59 20.907C140.642 20.907 140.692 20.9026 140.843 20.8753C141.014 21.2527 141.149 21.5411 141.573 22.4265C141.68 22.6496 141.888 23.0808 142.302 23.8947C142.555 23.423 142.806 22.9291 143.057 22.4132C143.307 21.8974 143.546 21.385 143.774 20.8753C143.879 20.8965 143.97 20.907 144.045 20.907C144.117 20.907 144.205 20.8965 144.311 20.8753C144.314 20.9009 144.524 22.7139 144.589 23.266C144.623 23.5623 144.749 24.6311 144.854 25.2149C144.702 25.1999 144.614 25.2025 144.343 25.2025C144.071 25.2025 143.977 25.1999 143.818 25.2149C143.797 24.781 143.762 24.3119 143.714 23.8066C143.665 23.3013 143.616 22.8004 143.566 22.303H143.553C143.314 22.8004 143.077 23.288 142.846 23.7686C142.614 24.2484 142.385 24.7307 142.157 25.2149C142.098 25.2034 142.061 25.2025 142.037 25.2025C142.007 25.2025 141.971 25.2043 141.918 25.2149C141.69 24.7431 141.463 24.2713 141.239 23.7995C141.013 23.3277 140.781 22.8498 140.54 22.3656H140.528C140.461 22.8498 140.41 23.3277 140.376 23.7995ZM162.117 23.7995C162.084 24.2713 162.059 24.7431 162.025 25.2149C161.935 25.1999 161.885 25.2025 161.728 25.2025C161.571 25.2025 161.522 25.1999 161.431 25.2149C161.566 24.4909 161.676 23.7704 161.782 23.0543C161.887 22.3383 161.984 21.6116 162.072 20.8753C162.221 20.9026 162.263 20.907 162.331 20.907C162.383 20.907 162.433 20.9026 162.585 20.8753C162.755 21.2527 162.89 21.5411 163.314 22.4265C163.421 22.6496 163.629 23.0808 164.043 23.8947C164.296 23.423 164.548 22.9291 164.798 22.4132C165.048 21.8974 165.287 21.385 165.515 20.8753C165.62 20.8965 165.711 20.907 165.787 20.907C165.858 20.907 165.946 20.8965 166.052 20.8753C166.055 20.9009 166.265 22.7139 166.33 23.266C166.364 23.5623 166.49 24.6311 166.595 25.2149C166.443 25.1999 166.355 25.2025 166.084 25.2025C165.812 25.2025 165.718 25.1999 165.559 25.2149C165.538 24.781 165.503 24.3119 165.455 23.8066C165.406 23.3013 165.357 22.8004 165.307 22.303H165.294C165.055 22.8004 164.818 23.288 164.587 23.7686C164.355 24.2484 164.126 24.7307 163.898 25.2149C163.839 25.2034 163.802 25.2025 163.779 25.2025C163.749 25.2025 163.712 25.2043 163.659 25.2149C163.431 24.7431 163.204 24.2713 162.98 23.7995C162.754 23.3277 162.522 22.8498 162.281 22.3656H162.269C162.202 22.8498 162.151 23.3277 162.117 23.7995ZM147.57 25.3013C146.639 25.3013 145.649 24.9574 145.649 23.654C145.649 23.5429 145.657 22.5658 145.658 22.5041C145.665 22.1416 145.663 21.206 145.636 20.8744C145.973 20.9088 146.123 20.9062 146.154 20.9062C146.185 20.9062 146.337 20.9079 146.672 20.8744C146.629 21.2827 146.605 21.6628 146.596 22.0146C146.587 22.3665 146.583 22.7228 146.583 23.0852C146.583 24.6593 147.058 24.8789 147.848 24.8789C148.898 24.8789 148.933 23.6681 148.933 22.6117C148.933 22.2616 148.927 21.6557 148.882 20.8744C149.09 20.9044 149.155 20.9062 149.204 20.9062C149.284 20.9062 149.347 20.9018 149.52 20.8744C149.498 21.1134 149.438 22.1831 149.438 23.2431C149.438 24.0896 149.262 25.3013 147.57 25.3013ZM158.897 25.3013C157.965 25.3013 156.975 24.9574 156.975 23.654C156.975 23.5429 156.983 22.5658 156.985 22.5041C156.992 22.1416 156.989 21.206 156.963 20.8744C157.3 20.9088 157.45 20.9062 157.48 20.9062C157.511 20.9062 157.664 20.9079 157.998 20.8744C157.956 21.2827 157.931 21.6628 157.922 22.0146C157.913 22.3665 157.91 22.7228 157.91 23.0852C157.91 24.6593 158.384 24.8789 159.174 24.8789C160.225 24.8789 160.259 23.6681 160.259 22.6117C160.259 22.2616 160.254 21.6557 160.209 20.8744C160.416 20.9044 160.481 20.9062 160.531 20.9062C160.61 20.9062 160.674 20.9018 160.846 20.8744C160.824 21.1134 160.764 22.1831 160.764 23.2431C160.764 24.0896 160.589 25.3013 158.897 25.3013ZM151.664 21.1804C151.284 21.1804 151.007 21.437 151.007 21.7501C151.007 22.0631 151.154 22.2677 151.967 22.6328C152.95 23.0755 152.927 23.7096 152.927 23.8894C152.927 24.6452 152.375 25.3013 151.254 25.3013C150.784 25.3013 150.413 25.1849 150.237 25.0482C150.279 24.9009 150.315 24.7651 150.344 24.6434C150.374 24.5209 150.399 24.3886 150.42 24.2448H150.54C150.584 24.4873 150.794 24.9283 151.412 24.9283C152.142 24.9283 152.151 24.3568 152.151 24.2828C152.151 23.9424 151.961 23.7316 151.21 23.3939C150.24 22.9582 150.269 22.3206 150.269 22.1434C150.269 21.0481 151.222 20.7889 151.689 20.7889C152.067 20.7889 152.434 20.8682 152.725 21.0993C152.688 21.1963 152.655 21.2906 152.628 21.3806C152.6 21.4714 152.566 21.5861 152.524 21.7254H152.429C152.294 21.363 152.039 21.1813 151.665 21.1813L151.664 21.1804ZM153.621 20.8744C154.183 20.8868 154.287 20.9062 154.746 20.9062C155.472 20.9062 155.942 20.8876 156.073 20.8744C156.056 20.9414 156.047 21.0305 156.047 21.1398C156.047 21.2492 156.051 21.3065 156.073 21.4238C156.061 21.4238 154.928 21.348 154.638 21.348C154.621 21.5799 154.612 21.8092 154.61 22.0367C154.608 22.2642 154.606 22.4935 154.606 22.7254C154.83 22.7219 155.258 22.7166 156.047 22.6751C156.023 22.8136 156.016 22.8727 156.016 22.9591C156.016 23.0323 156.024 23.0385 156.047 23.2184C155.568 23.1804 155.082 23.1619 154.606 23.1619C154.606 23.2968 154.606 23.4318 154.603 23.5658C154.594 24.0958 154.604 24.4635 154.619 24.7598C155.35 24.7598 155.854 24.7043 156.073 24.6778C156.052 24.7951 156.047 24.8542 156.047 24.9618C156.047 25.0694 156.053 25.154 156.073 25.2149C155.736 25.2025 155.241 25.2025 154.96 25.2025H153.959C153.811 25.2025 153.705 25.2043 153.621 25.2149C153.66 24.6134 153.672 24.087 153.672 23.4838V22.6249C153.672 22.1019 153.664 21.5675 153.621 20.8744ZM168.68 23.0535C168.68 22.0032 169.449 20.7871 171.104 20.7871C172.235 20.7871 173.497 21.3497 173.497 23.0464C173.497 24.1108 172.697 25.2995 171.085 25.2995C168.614 25.2995 168.68 23.2466 168.68 23.0535ZM172.461 22.9203C172.461 21.6584 171.756 21.154 171.085 21.154C170.145 21.154 169.715 22.1522 169.715 23.1161C169.715 24.4944 170.358 24.9327 171.041 24.9327C171.07 24.9327 172.461 25.0006 172.461 22.9203ZM174.169 20.8744C174.731 20.8868 174.835 20.9062 175.294 20.9062C176.02 20.9062 176.49 20.8876 176.621 20.8744C176.604 20.9414 176.595 21.0305 176.595 21.1398C176.595 21.2492 176.599 21.3065 176.621 21.4238C176.609 21.4238 175.476 21.348 175.186 21.348C175.169 21.5799 175.16 21.8092 175.158 22.0367C175.156 22.2642 175.154 22.4935 175.154 22.7254C175.378 22.7219 175.806 22.7166 176.595 22.6751C176.571 22.8136 176.564 22.8727 176.564 22.9591C176.564 23.0323 176.572 23.0385 176.595 23.2184C176.116 23.1804 175.63 23.1619 175.154 23.1619V23.4838C175.154 24.0984 175.167 24.6258 175.205 25.2149C175.074 25.199 174.99 25.2025 174.687 25.2025C174.384 25.2025 174.3 25.1999 174.169 25.2149C174.208 24.6134 174.22 24.087 174.22 23.4838V22.6249C174.22 22.1019 174.212 21.5675 174.169 20.8744ZM194.435 20.8744C194.668 20.9018 194.827 20.9062 194.953 20.9062C195.079 20.9062 195.238 20.9018 195.47 20.8744C195.432 21.5023 195.42 22.0182 195.42 22.624V23.4829C195.42 23.8656 195.423 24.3762 195.432 24.759C196.164 24.759 196.668 24.7034 196.887 24.6769C196.865 24.7942 196.861 24.8533 196.861 24.9609C196.861 25.0685 196.866 25.1531 196.887 25.214C196.55 25.2016 196.054 25.2016 195.774 25.2016H195.149C194.695 25.2016 194.555 25.199 194.435 25.214C194.474 24.6126 194.485 24.0861 194.485 23.4829V22.624C194.485 22.1011 194.477 21.5675 194.435 20.8744ZM185.084 23.0535C185.084 22.0032 185.853 20.7871 187.508 20.7871C188.639 20.7871 189.901 21.3497 189.901 23.0464C189.901 24.1108 189.101 25.2995 187.489 25.2995C185.018 25.2995 185.084 23.2466 185.084 23.0535ZM188.865 22.9203C188.865 21.6584 188.16 21.154 187.489 21.154C186.549 21.154 186.119 22.1522 186.119 23.1161C186.119 24.4944 186.762 24.9327 187.445 24.9327C187.474 24.9327 188.865 25.0006 188.865 22.9203ZM181.239 23.6725C181.075 24.132 180.86 24.7493 180.712 25.214C180.615 25.2052 180.507 25.2016 180.39 25.2016C180.212 25.2016 180.159 25.199 180.062 25.214C180.02 25.0605 179.853 24.4388 179.632 23.6725C179.544 23.3648 179.453 23.0543 179.361 22.7404C179.276 22.4529 178.829 20.9661 178.792 20.8735C179.07 20.8991 179.198 20.9053 179.323 20.9053C179.399 20.9053 179.532 20.9044 179.834 20.8735C180.011 21.6266 180.187 22.2933 180.254 22.5446C180.396 23.0764 180.596 23.8233 180.662 24.0641H180.674C180.987 23.1663 181.138 22.7289 181.287 22.2924C181.585 21.4159 181.692 21.0905 181.76 20.8744C181.933 20.9009 181.998 20.9062 182.076 20.9062C182.155 20.9062 182.219 20.9018 182.392 20.8744C182.42 21.0279 182.478 21.2571 182.843 22.3647C183.067 23.0438 183.266 23.6081 183.39 24.0641H183.402C183.548 23.6046 183.635 23.3057 183.946 22.2571C184.2 21.3991 184.29 21.0728 184.337 20.8735C184.442 20.8947 184.531 20.9053 184.603 20.9053C184.674 20.9053 184.742 20.8991 184.893 20.8735C184.825 21.0587 184.563 21.8056 184.261 22.7113C184.164 23.0014 184.067 23.2942 183.971 23.5896C183.703 24.4053 183.55 24.8895 183.453 25.2131C183.356 25.2043 183.249 25.2008 183.132 25.2008C182.953 25.2008 182.901 25.1981 182.804 25.2131C182.669 24.699 182.516 24.1884 182.346 23.6813C182.176 23.1743 181.995 22.6566 181.806 22.1302H181.794C181.597 22.6884 181.505 22.9282 181.241 23.6716L181.239 23.6725ZM191.559 23.2237V23.4829C191.559 24.0976 191.571 24.6249 191.609 25.214C191.478 25.1981 191.395 25.2016 191.091 25.2016C190.788 25.2016 190.704 25.199 190.574 25.214C190.612 24.6126 190.624 24.0861 190.624 23.4829V22.624C190.624 22.1011 190.616 21.5675 190.574 20.8744C190.806 20.9018 190.965 20.9062 191.091 20.9062C191.434 20.9062 191.475 20.8744 192.02 20.8744C192.492 20.8744 193.528 20.8735 193.528 21.9229C193.528 22.2307 193.443 22.4811 193.275 22.6743C193.106 22.8683 192.864 23.005 192.548 23.0852C192.75 23.4432 192.967 23.8004 193.199 24.1558C193.431 24.512 193.661 24.8639 193.893 25.214C193.72 25.199 193.634 25.2016 193.324 25.2016C193.014 25.2016 192.922 25.199 192.749 25.214L191.615 23.2245L191.559 23.2237ZM192.561 22.0614C192.561 21.6063 192.441 21.4511 192.331 21.37C192.253 21.3136 192.148 21.2765 192.023 21.2598C191.899 21.243 191.751 21.2342 191.578 21.2342C191.566 21.8065 191.559 22.3797 191.559 22.952C191.585 22.9565 191.609 22.9591 191.632 22.9617C191.655 22.9635 191.677 22.9653 191.698 22.9653C192.514 22.9653 192.561 22.333 192.561 22.0614ZM197.589 22.624C197.589 22.1011 197.581 21.5675 197.538 20.8744C197.771 20.9018 197.93 20.9062 198.056 20.9062C198.468 20.9062 198.502 20.8744 199.199 20.8744C200.509 20.8744 201.617 21.243 201.617 22.9274C201.617 24.714 200.213 25.214 199.446 25.214C199.13 25.214 198.86 25.2122 198.637 25.2078C198.414 25.2034 198.22 25.2016 198.056 25.2016C197.753 25.2016 197.669 25.199 197.538 25.214C197.577 24.6126 197.589 24.0861 197.589 23.4829V22.624ZM198.53 24.8542C198.81 24.8727 198.97 24.8727 199.085 24.8727C200.016 24.8727 200.619 24.2537 200.619 22.9141C200.619 21.8965 200.069 21.2342 199.187 21.2342C198.958 21.2342 198.839 21.2386 198.53 21.266C198.53 21.4212 198.523 21.2227 198.523 22.4979V23.6222C198.523 24.9124 198.53 24.6849 198.53 24.8542ZM222.052 22.1319C222.052 21.4891 222.034 21.3982 222.02 20.8753C222.138 20.8965 222.233 20.907 222.304 20.907C222.376 20.907 222.471 20.8965 222.588 20.8753C224.216 22.6822 225.183 23.7228 225.33 23.8824V23.333C225.33 22.5261 225.332 21.1116 225.286 20.8762C225.404 20.8973 225.498 20.9079 225.57 20.9079C225.641 20.9079 225.736 20.8973 225.854 20.8762C225.753 22.6981 225.752 23.6099 225.752 24.4574V25.2157C225.668 25.2069 225.582 25.2034 225.493 25.2034C225.404 25.2034 225.318 25.2078 225.247 25.2157C224.379 24.2052 223.459 23.1884 222.487 22.1646C222.481 22.3127 222.474 22.5711 222.474 22.9035C222.474 23.7836 222.468 24.7396 222.512 25.2157C222.421 25.2008 222.372 25.2034 222.215 25.2034C222.118 25.2034 222.021 25.2078 221.925 25.2157C221.952 25.1064 222.051 23.3648 222.051 22.1328L222.052 22.1319ZM217.097 21.3488C217.033 21.3488 216.452 21.3603 215.937 21.4309C215.963 21.2906 215.969 21.2227 215.969 21.1531C215.969 21.0834 215.963 21.0155 215.937 20.8753C216.234 20.8841 216.745 20.907 217.584 20.907C218.422 20.907 218.936 20.8841 219.192 20.8753C219.164 21.0287 219.16 21.0975 219.16 21.1531C219.16 21.2086 219.164 21.2783 219.192 21.4309C218.792 21.3709 218.225 21.3488 218.064 21.3488C218.048 21.4291 218.052 21.5869 218.052 21.9044V23.4838C218.052 24.0984 218.064 24.6258 218.102 25.2149C217.972 25.199 217.888 25.2025 217.584 25.2025C217.281 25.2025 217.197 25.1999 217.067 25.2149C217.106 24.6134 217.117 24.087 217.117 23.4838V21.9044C217.117 21.4926 217.108 21.4026 217.099 21.3488H217.097ZM219.864 20.8753C220.097 20.9026 220.258 20.907 220.385 20.907C220.512 20.907 220.668 20.9026 220.902 20.8753C220.863 21.5032 220.853 22.0191 220.853 22.6249V23.4838C220.853 24.0984 220.863 24.6258 220.902 25.2149C220.772 25.199 220.689 25.2025 220.385 25.2025C220.081 25.2025 219.995 25.1999 219.864 25.2149C219.903 24.6134 219.917 24.087 219.917 23.4838V22.6249C219.917 22.1019 219.906 21.5684 219.864 20.8753ZM214.201 20.8753C214.434 20.9026 214.595 20.907 214.722 20.907C214.849 20.907 215.005 20.9026 215.239 20.8753C215.2 21.5032 215.189 22.0191 215.189 22.6249V23.4838C215.189 24.0984 215.2 24.6258 215.239 25.2149C215.108 25.199 215.026 25.2025 214.722 25.2025C214.418 25.2025 214.332 25.1999 214.201 25.2149C214.24 24.6134 214.254 24.087 214.254 23.4838V22.6249C214.254 22.1019 214.243 21.5684 214.201 20.8753ZM206.104 23.6734C205.94 24.1328 205.725 24.7501 205.576 25.2149C205.479 25.206 205.372 25.2025 205.255 25.2025C205.076 25.2025 205.023 25.1999 204.926 25.2149C204.885 25.0614 204.717 24.4397 204.497 23.6734C204.409 23.3656 204.318 23.0552 204.225 22.7413C204.141 22.4538 203.694 20.967 203.657 20.8744C203.934 20.9 204.062 20.9062 204.187 20.9062C204.263 20.9062 204.396 20.9053 204.699 20.8744C204.875 21.6275 205.052 22.2942 205.119 22.5455C205.261 23.0773 205.461 23.8242 205.526 24.0649H205.538C205.852 23.1672 206.002 22.7298 206.151 22.2933C206.449 21.4167 206.557 21.0913 206.625 20.8753C206.798 20.9017 206.862 20.907 206.941 20.907C207.019 20.907 207.083 20.9026 207.256 20.8753C207.285 21.0287 207.343 21.258 207.708 22.3656C207.932 23.0446 208.13 23.609 208.255 24.0649H208.267C208.412 23.6055 208.5 23.3065 208.81 22.258C209.064 21.4 209.155 21.0737 209.202 20.8744C209.307 20.8956 209.396 20.9062 209.467 20.9062C209.539 20.9062 209.606 20.9 209.757 20.8744C209.689 21.0596 209.427 21.8065 209.126 22.7122C209.029 23.0023 208.932 23.2951 208.836 23.5905C208.568 24.4062 208.415 24.8903 208.318 25.214C208.221 25.2052 208.113 25.2016 207.996 25.2016C207.818 25.2016 207.765 25.199 207.668 25.214C207.533 24.6999 207.381 24.1893 207.21 23.6822C207.04 23.1752 206.859 22.6575 206.671 22.131H206.658C206.462 22.6893 206.37 22.9291 206.105 23.6725L206.104 23.6734ZM211.324 23.2245V23.4838C211.324 24.0984 211.337 24.6258 211.375 25.2149C211.244 25.199 211.16 25.2025 210.857 25.2025C210.554 25.2025 210.47 25.1999 210.339 25.2149C210.378 24.6134 210.39 24.087 210.39 23.4838V22.6249C210.39 22.1019 210.382 21.5684 210.339 20.8753C210.572 20.9026 210.731 20.907 210.857 20.907C211.2 20.907 211.24 20.8753 211.785 20.8753C212.258 20.8753 213.293 20.8744 213.293 21.9238C213.293 22.2316 213.209 22.482 213.04 22.6751C212.872 22.8692 212.629 23.0058 212.314 23.0861C212.516 23.4441 212.733 23.8013 212.965 24.1566C213.196 24.5129 213.427 24.8648 213.659 25.2149C213.486 25.1999 213.4 25.2025 213.09 25.2025C212.779 25.2025 212.688 25.1999 212.515 25.2149L211.381 23.2254L211.324 23.2245ZM212.327 22.0623C212.327 21.6072 212.207 21.452 212.097 21.3709C212.019 21.3145 211.913 21.2774 211.789 21.2607C211.665 21.2439 211.517 21.2351 211.344 21.2351C211.331 21.8074 211.325 22.3806 211.325 22.9529C211.351 22.9573 211.375 22.96 211.397 22.9626C211.42 22.9644 211.442 22.9662 211.464 22.9662C212.28 22.9662 212.327 22.334 212.327 22.0623ZM229.194 21.1804C228.331 21.1804 227.604 21.9291 227.604 23.1619C227.604 24.1619 228.159 24.9283 229.138 24.9283C229.281 24.9283 229.704 24.8956 229.825 24.8145C229.836 24.7484 229.844 24.6611 229.844 24.3718C229.844 23.7175 229.825 23.6355 229.8 23.2827C229.962 23.3154 230.19 23.3145 230.267 23.3145C230.399 23.3145 230.625 23.3145 230.779 23.2827C230.742 23.43 230.732 23.99 230.731 24.0261C230.729 24.1381 230.728 24.2448 230.728 24.3454C230.728 24.7942 230.728 24.9609 230.746 25.042C229.847 25.3013 229.232 25.3013 229.061 25.3013C227.392 25.3013 226.568 24.3127 226.568 23.1998C226.568 21.3832 227.955 20.788 229.181 20.788C229.497 20.788 230.012 20.7968 230.702 21.1681C230.668 21.2774 230.636 21.3859 230.604 21.4908C230.572 21.5966 230.546 21.7042 230.526 21.8136H230.437C230.107 21.3471 229.669 21.1804 229.194 21.1804ZM244.176 21.3488C244.112 21.3488 243.531 21.3603 243.016 21.4309C243.042 21.2906 243.048 21.2227 243.048 21.1531C243.048 21.0834 243.042 21.0155 243.016 20.8753C243.312 20.8841 243.824 20.907 244.663 20.907C245.501 20.907 246.015 20.8841 246.271 20.8753C246.243 21.0287 246.239 21.0975 246.239 21.1531C246.239 21.2086 246.243 21.2783 246.271 21.4309C245.871 21.3709 245.304 21.3488 245.143 21.3488C245.127 21.4291 245.131 21.5869 245.131 21.9044V23.4838C245.131 24.0984 245.143 24.6258 245.181 25.2149C245.051 25.199 244.967 25.2025 244.663 25.2025C244.36 25.2025 244.276 25.1999 244.146 25.2149C244.185 24.6134 244.196 24.087 244.196 23.4838V21.9044C244.196 21.4926 244.187 21.4026 244.178 21.3488H244.176ZM250.688 23.7995C250.655 24.2713 250.63 24.7431 250.596 25.2149C250.506 25.1999 250.456 25.2025 250.299 25.2025C250.142 25.2025 250.093 25.1999 250.002 25.2149C250.137 24.4909 250.247 23.7704 250.353 23.0543C250.458 22.3383 250.555 21.6116 250.643 20.8753C250.792 20.9026 250.834 20.907 250.902 20.907C250.954 20.907 251.004 20.9026 251.156 20.8753C251.326 21.2527 251.461 21.5411 251.885 22.4265C251.992 22.6496 252.2 23.0808 252.614 23.8947C252.867 23.423 253.119 22.9291 253.369 22.4132C253.619 21.8974 253.858 21.385 254.086 20.8753C254.191 20.8965 254.282 20.907 254.358 20.907C254.429 20.907 254.517 20.8965 254.623 20.8753C254.626 20.9009 254.836 22.7139 254.901 23.266C254.935 23.5623 255.061 24.6311 255.166 25.2149C255.014 25.1999 254.926 25.2025 254.655 25.2025C254.383 25.2025 254.289 25.1999 254.13 25.2149C254.109 24.781 254.074 24.3119 254.026 23.8066C253.977 23.3013 253.928 22.8004 253.878 22.303H253.866C253.626 22.8004 253.389 23.288 253.158 23.7686C252.926 24.2484 252.697 24.7307 252.47 25.2149C252.41 25.2034 252.373 25.2025 252.35 25.2025C252.32 25.2025 252.283 25.2043 252.23 25.2149C252.002 24.7431 251.776 24.2713 251.551 23.7995C251.325 23.3277 251.093 22.8498 250.852 22.3656H250.84C250.773 22.8498 250.722 23.3277 250.688 23.7995ZM257.158 21.1804C256.778 21.1804 256.501 21.437 256.501 21.7501C256.501 22.0631 256.649 22.2677 257.462 22.6328C258.445 23.0755 258.422 23.7096 258.422 23.8894C258.422 24.6452 257.87 25.3013 256.748 25.3013C256.278 25.3013 255.908 25.1849 255.731 25.0482C255.774 24.9009 255.809 24.7651 255.839 24.6434C255.868 24.5209 255.894 24.3886 255.915 24.2448H256.035C256.079 24.4873 256.289 24.9283 256.906 24.9283C257.636 24.9283 257.645 24.3568 257.645 24.2828C257.645 23.9424 257.456 23.7316 256.704 23.3939C255.735 22.9582 255.763 22.3206 255.763 22.1434C255.763 21.0481 256.717 20.7889 257.184 20.7889C257.561 20.7889 257.929 20.8682 258.22 21.0993C258.182 21.1963 258.15 21.2906 258.122 21.3806C258.095 21.4714 258.06 21.5861 258.018 21.7254H257.924C257.789 21.363 257.534 21.1813 257.159 21.1813L257.158 21.1804ZM234.68 21.1804C234.3 21.1804 234.023 21.437 234.023 21.7501C234.023 22.0631 234.17 22.2677 234.983 22.6328C235.967 23.0755 235.944 23.7096 235.944 23.8894C235.944 24.6452 235.392 25.3013 234.27 25.3013C233.8 25.3013 233.43 25.1849 233.253 25.0482C233.296 24.9009 233.331 24.7651 233.361 24.6434C233.39 24.5209 233.415 24.3886 233.437 24.2448H233.557C233.601 24.4873 233.811 24.9283 234.428 24.9283C235.158 24.9283 235.167 24.3568 235.167 24.2828C235.167 23.9424 234.977 23.7316 234.226 23.3939C233.257 22.9582 233.285 22.3206 233.285 22.1434C233.285 21.0481 234.238 20.7889 234.706 20.7889C235.083 20.7889 235.451 20.8682 235.742 21.0993C235.704 21.1963 235.671 21.2906 235.644 21.3806C235.617 21.4714 235.582 21.5861 235.54 21.7254H235.445C235.311 21.363 235.056 21.1813 234.681 21.1813L234.68 21.1804ZM241.406 21.1804C241.026 21.1804 240.749 21.437 240.749 21.7501C240.749 22.0631 240.896 22.2677 241.709 22.6328C242.692 23.0755 242.67 23.7096 242.67 23.8894C242.67 24.6452 242.118 25.3013 240.996 25.3013C240.526 25.3013 240.155 25.1849 239.979 25.0482C240.021 24.9009 240.057 24.7651 240.087 24.6434C240.116 24.5209 240.141 24.3886 240.162 24.2448H240.282C240.326 24.4873 240.536 24.9283 241.154 24.9283C241.884 24.9283 241.893 24.3568 241.893 24.2828C241.893 23.9424 241.703 23.7316 240.952 23.3939C239.983 22.9582 240.011 22.3206 240.011 22.1434C240.011 21.0481 240.964 20.7889 241.431 20.7889C241.809 20.7889 242.177 20.8682 242.468 21.0993C242.43 21.1963 242.397 21.2906 242.37 21.3806C242.342 21.4714 242.308 21.5861 242.266 21.7254H242.171C242.036 21.363 241.782 21.1813 241.407 21.1813L241.406 21.1804ZM246.944 20.8744C247.506 20.8868 247.61 20.9062 248.068 20.9062C248.795 20.9062 249.264 20.8876 249.395 20.8744C249.379 20.9414 249.37 21.0305 249.37 21.1398C249.37 21.2492 249.373 21.3065 249.395 21.4238C249.383 21.4238 248.251 21.348 247.961 21.348C247.944 21.5799 247.934 21.8092 247.932 22.0367C247.931 22.2642 247.929 22.4935 247.929 22.7254C248.153 22.7219 248.581 22.7166 249.37 22.6751C249.345 22.8136 249.338 22.8727 249.338 22.9591C249.338 23.0323 249.347 23.0385 249.37 23.2184C248.89 23.1804 248.404 23.1619 247.929 23.1619C247.929 23.2968 247.928 23.4318 247.925 23.5658C247.917 24.0958 247.926 24.4635 247.941 24.7598C248.672 24.7598 249.177 24.7043 249.395 24.6778C249.374 24.7951 249.37 24.8542 249.37 24.9618C249.37 25.0694 249.375 25.154 249.395 25.2149C249.059 25.2025 248.563 25.2025 248.283 25.2025H247.282C247.133 25.2025 247.028 25.2043 246.944 25.2149C246.983 24.6134 246.994 24.087 246.994 23.4838V22.6249C246.994 22.1019 246.986 21.5675 246.944 20.8744ZM238.714 21.8727C238.908 21.4635 238.959 21.3303 239.169 20.8744C239.325 20.9026 239.402 20.9062 239.459 20.9062C239.536 20.9062 239.593 20.9009 239.762 20.8744C239.727 20.9326 239.594 21.1487 239.149 21.9608C238.931 22.3603 238.657 22.8595 238.435 23.2933C238.435 23.557 238.423 23.6381 238.423 23.9124C238.423 24.1275 238.426 24.3401 238.432 24.55C238.438 24.7607 238.456 24.9821 238.486 25.2131C238.326 25.1981 238.234 25.2008 237.949 25.2008C237.664 25.2008 237.573 25.1981 237.412 25.2131C237.472 24.8665 237.488 24.5094 237.488 24.0129C237.488 23.8956 237.486 23.6875 237.475 23.4256C237.262 22.9997 237.109 22.7289 236.707 21.9661C236.341 21.2686 236.147 20.9264 236.117 20.8735C236.445 20.9026 236.566 20.9053 236.685 20.9053C236.804 20.9053 236.914 20.9026 237.248 20.8735C237.445 21.3039 237.707 21.84 237.759 21.9476C238.043 22.5296 238.145 22.691 238.196 22.7686H238.208C238.296 22.6425 238.472 22.3815 238.714 21.8727Z" fill="#010101"/>
<path d="M116.78 10.4993V9.8617L119.97 10.0337L119.867 11.0681C119.815 12.0681 119.78 15.0681 119.815 15.9473L116.815 15.9994L116.797 11.7409L108.245 12.1201L106.779 12.4129L106.538 10.2409L107.986 10.3273L112.107 10.4137L111.987 8.17296L107.073 8.43134L105.28 8.77614L104.987 6.63854L106.556 6.69057H116.572L116.779 3.03619L108.365 3.381L106.814 3.69141L106.555 1.41536L108.09 1.50178L116.867 1.67374L116.901 0.966497L120.452 1.3113L119.228 6.68969H119.78L121.59 6.55212L121.642 8.51776L119.47 8.31053L115.005 8.13768L114.85 10.4649L116.78 10.4993ZM133.702 7.20116L133.874 8.39077L123.375 9.87316L122.927 7.99394L123.513 7.95955L123.392 5.64911L123.168 4.70112L126.461 4.71876L129.702 4.64998L129.736 2.82279L124.927 3.06441L123.358 3.37482L123.116 1.3404L124.651 1.42682L129.754 1.54764L129.772 1.01323L133.444 1.39243L132.512 4.58207H132.788L132.875 5.90925L126.462 5.96128L126.48 7.73732L133.703 7.20292L133.702 7.20116ZM137.862 9.57774L137.793 10.6809C137.793 11.5257 137.759 14.2665 137.793 15.2145L137.845 15.9218L134.88 15.8874V15.0769L128.381 15.3009V15.6634L125.381 15.7842L125.415 14.905C125.415 14.2154 125.381 11.6122 125.329 10.8361L125.087 9.99133H128.432C128.38 10.5257 128.38 12.2841 128.363 13.7321L134.88 13.8009C134.863 13.3185 134.863 12.8185 134.846 12.3353L128.881 12.4905L128.709 10.9393L134.829 11.0257C134.811 10.6465 134.811 10.3185 134.795 10.1465L134.691 9.43929L137.863 9.57686L137.862 9.57774ZM134.724 0.500882L138.154 0.690479L137.913 2.17287C137.844 3.39687 137.775 7.29287 137.775 8.77526L134.827 8.65445L134.862 7.75761C134.879 6.79198 134.862 3.29281 134.827 1.34481L134.724 0.500882ZM180.387 9.93048L175.112 10.2409L173.319 10.5857L173.026 8.37931L174.595 8.43134H187.818L189.628 8.29377L189.68 10.3282L187.508 10.121L183.457 9.949L183.267 13.2762L180.526 13.3794L180.389 9.93136L180.387 9.93048ZM175.56 7.29199L175.112 2.41361L174.836 1.29278L178.232 1.43035L184.783 1.46474V0.965616L188.162 1.1896L187.301 7.36166L184.681 7.24084V6.89604L178.906 7.08564L178.63 5.53447L184.714 5.62089L184.749 2.86247L178.284 3.1041L178.405 7.1897L175.56 7.29199ZM178.525 11.4561L178.421 14.1113L188.541 13.8873V15.6281L178.369 15.4905L178.352 15.7665L175.438 15.9218L175.265 12.5769L175.076 11.4217L178.525 11.4561ZM201.914 12.9208L199.5 14.6104L196.07 8.54245C194.708 10.6113 192.95 12.9905 191.45 14.6281L189.95 13.7665C191.656 11.2497 193.863 6.68087 194.725 4.4057V3.23373L192.587 3.3369L190.898 3.62968L190.605 1.4233L191.932 1.49208H199.448L201.103 1.35451L201.172 3.49211L199.431 3.30251L197.052 3.19934L198.587 4.45773L197.828 5.6641C197.608 6.07328 197.345 6.52478 197.039 7.0195M204.984 8.77702C204.967 11.7938 204.967 14.9658 204.984 15.7939L202.036 16.0011L202.088 14.4323C202.14 13.1563 202.106 1.89949 202.054 0.502646L205.329 0.744272L205.071 2.57146C205.036 3.05383 205.019 4.93305 205.002 7.14031L207.088 6.81315L207.277 8.96838L204.984 8.77879V8.77702ZM208.672 9.98339C208.69 8.5354 208.62 3.46654 208.535 2.20814L208.363 1.3113L211.621 1.39772C211.552 2.31132 211.535 5.43217 211.569 7.6897L215.259 7.75849V5.27609L212.087 5.43129L211.88 3.74167L215.259 3.84485C215.241 3.06882 215.241 2.39685 215.224 1.94888L215.069 1.1217L218.362 1.22488L218.224 2.3801C218.172 3.69053 218.121 7.98336 218.207 9.6721H215.224C215.224 9.51689 215.242 9.3273 215.242 9.1377L211.588 9.24088C211.588 9.46486 211.605 9.65446 211.605 9.80967L208.675 9.98163L208.672 9.98339ZM222.859 10.4499L222.791 11.3467C222.756 12.1915 222.739 14.5187 222.773 15.2948L222.825 15.9156L219.774 16.002C219.792 15.3124 219.808 13.5716 219.792 12.158L211.844 12.5372L210.379 12.83L210.137 10.6748L211.585 10.7612L219.756 10.8644C219.756 10.6404 219.756 10.4508 219.739 10.3123L222.859 10.4499ZM219.704 9.53629L219.756 8.46749C219.791 7.19146 219.774 1.89949 219.722 0.502646L223.083 0.692243L222.859 1.96828C222.807 2.64024 222.773 4.45068 222.739 6.19233L224.755 5.88192L224.945 8.03715L222.739 7.84756C222.721 8.58919 222.721 9.24352 222.739 9.65799L219.704 9.53629ZM230.788 13.2171V14.2515L240.994 14.0443V15.6995L230.788 15.5964V15.7683L227.495 15.9235L227.375 12.9755L227.116 11.9755L230.788 12.0099L236.874 11.9578L236.943 10.889L228.719 11.061L227.237 11.1986L226.995 9.61213L232.374 9.62977L232.322 8.50894L227.417 8.75057L225.624 9.09537L225.331 7.04419L226.9 7.09622H240.123L241.933 6.95865L241.985 8.83787L239.813 8.63064L235.46 8.49307L235.374 9.64829H237.029L237.047 9.26909L240.547 9.54511L239.875 11.9243H240.116L240.168 13.2348L230.79 13.2171H230.788ZM227.719 6.40044L227.271 2.21167L226.961 1.09084L230.53 1.24604L237.219 1.28044L237.236 0.798065L240.65 1.02205L239.753 6.26287L237.063 6.21085L237.081 5.91807L231.168 6.03889L230.892 4.53886L237.115 4.62528L237.184 2.6085L230.564 2.7981L230.667 6.29815L227.719 6.40044ZM254.366 9.63947C251.97 10.0019 246.97 10.5531 244.764 10.7259L243.661 11.3979H243.316L242.644 8.74263C243.385 8.74263 244.575 8.72499 245.902 8.6906L245.678 5.82901L245.368 4.74257H248.885L248.695 8.60418C250.901 8.5354 253.091 8.43222 254.263 8.3458L254.366 9.63947ZM245.281 3.33338L243.661 3.66054L243.402 1.40213L244.644 1.48855L250.729 1.55734L250.781 0.936515L254.161 1.21253L252.713 7.88459H250.161L250.593 3.02297L245.283 3.33338H245.281ZM248.646 11.4587L248.578 14.1827L258.422 13.8036V15.6307L248.527 15.5443V15.8027L245.647 15.9235L245.44 12.6139L245.216 11.4587H248.646ZM254.782 12.9323L254.851 11.6906C254.869 10.4146 254.851 1.89861 254.799 0.502646L258.126 0.692243L257.868 2.46828C257.834 3.00268 257.799 4.70906 257.782 6.60591L259.782 6.2955L259.971 8.45074L257.765 8.26114C257.765 10.2268 257.765 12.1051 257.799 12.7947L254.782 12.9323ZM148.242 6.22407C148.224 3.77606 148.19 1.53529 148.139 0.862439L151.035 1.05204L150.914 2.75841C150.845 4.41364 150.828 13.1192 150.914 15.1537L148.208 15.3777L148.276 13.8088V13.5161L146.015 14.5505L143.894 8.7929C142.946 10.7753 141.826 12.7921 140.636 14.5858L139.085 13.9649C140.567 11.0002 142.205 6.05211 142.774 3.17288L142.498 1.34569L146.326 1.55293L145.946 3.65613C145.533 5.00095 144.946 6.48334 144.257 8.01775L144.929 7.74173L148.276 13.1545C148.276 11.9129 148.276 9.74088 148.259 7.55125L146.756 7.65443L145.67 7.87842L145.462 6.13765L146.273 6.18968L148.241 6.22407H148.242ZM154.862 0.724871L154.689 1.98327C154.603 3.72404 154.517 13.4649 154.637 15.7745L151.862 15.9985L151.759 0.5L154.862 0.724871ZM162.352 8.82729L165.028 8.84493C165.028 8.15532 165.028 7.44896 165.01 6.74172L162.904 6.8105L162.835 6.25847C162.421 7.08564 161.99 7.93045 161.508 8.77526L162.352 8.82729ZM165.009 5.32812C164.991 3.24607 164.952 1.4524 164.907 0.863321L167.803 1.05292L167.682 2.75929C167.613 4.41452 167.596 13.1201 167.682 15.1545L164.976 15.3785L165.045 13.8097V10.1721L161.472 10.3961L161.283 9.15445C160.162 11.1368 158.887 13.0681 157.697 14.688L156.163 14.0161C157.852 11.1889 160.162 5.74082 160.8 3.22403L158.455 3.39687L156.939 3.72404L156.68 1.62083L157.852 1.67286L160.887 1.74164L160.904 1.24163L164.284 1.44887C164.215 1.93124 164.112 2.9145 164.06 3.39687C163.836 4.00005 163.577 4.63851 163.284 5.27609L163.818 5.31048L165.009 5.32812ZM171.631 0.724871L171.458 1.98327C171.372 3.72404 171.286 13.4649 171.406 15.7745L168.631 15.9985L168.528 0.5L171.631 0.724871Z" fill="#010101"/>
</g>
</g>
<defs>
<clipPath id="clip0_17_47">
<rect width="260" height="25" fill="white" transform="translate(0 0.5)"/>
</clipPath>
<clipPath id="clip1_17_47">
<rect width="260" height="25" fill="white" transform="translate(0 0.5)"/>
</clipPath>
</defs>
</svg>
