<svg width="263" height="28" viewBox="0 0 263 28" fill="none" xmlns="http://www.w3.org/2000/svg">
<path d="M4.81224 26.9753C4.60325 27.521 4.13146 27.8233 3.66143 27.8233H0.249563C0.111113 27.8233 0 27.6987 0 27.5456C0 27.5073 0.00705478 27.47 0.0202825 27.4366L8.50101 5.19823C8.54863 5.07259 8.65269 5.00781 8.75675 5.00781C8.86081 5.00781 8.96398 5.07259 9.01248 5.19725L10.9367 10.2433C10.979 10.3532 10.9993 10.4671 10.9993 10.578C10.9993 10.6889 10.9781 10.8076 10.9367 10.9176L4.81224 26.9753Z" fill="white"/>
<path d="M24.4105 27.8242C24.8796 27.8242 25.3523 27.5229 25.5613 26.9762L31.6849 10.9185C31.7272 10.8085 31.7475 10.6947 31.7475 10.5818C31.7475 10.4689 31.7263 10.3551 31.6849 10.2451L29.7607 5.19912C29.713 5.07349 29.609 5.00969 29.5049 5.00969C29.4009 5.00969 29.2977 5.07447 29.2492 5.20011L23.0472 21.462L15.1872 0.84999C14.9782 0.303281 14.5056 0.00195312 14.0364 0.00195312H10.6246C10.4861 0.00195312 10.375 0.126607 10.375 0.279724C10.375 0.318004 10.3821 0.355302 10.3953 0.388674L20.5348 26.9772C20.7438 27.5229 21.2156 27.8252 21.6856 27.8252L24.4105 27.8242Z" fill="white"/>
<path d="M35.9324 0.850081C35.7243 0.303372 35.2516 0.00204388 34.7816 0.00204388H31.3697C31.2312 0.00204388 31.1201 0.126697 31.1201 0.279815C31.1201 0.318095 31.1272 0.355393 31.1404 0.388764L39.3019 21.7899C40.6564 25.3362 43.7932 27.8243 47.4934 27.8243C49.0913 27.8243 50.6143 27.3483 51.9176 26.516C52.0446 26.4345 52.1187 26.2843 52.1187 26.1302C52.1187 26.0713 52.109 26.0134 52.0869 25.9565L50.7227 22.3779C50.6231 22.1168 50.3338 22.0265 50.1275 22.1845C49.3788 22.7577 48.4714 23.0934 47.4943 23.0934C45.571 23.0934 43.9219 21.7938 43.2147 19.9407L35.9324 0.850081Z" fill="white"/>
<path d="M59.0547 26.9773C59.2637 27.523 59.7355 27.8253 60.2055 27.8253H63.6174C63.7558 27.8253 63.8669 27.7007 63.8669 27.5475C63.8669 27.5093 63.8599 27.472 63.8466 27.4386L55.6851 6.03744C54.3315 2.49021 51.1948 0.00204388 47.4936 0.00204388C45.8957 0.00204388 44.3728 0.478083 43.0694 1.31042C42.9424 1.39188 42.8684 1.54206 42.8684 1.69615C42.8684 1.75505 42.8781 1.81296 42.9001 1.86988L44.2643 5.44852C44.364 5.70961 44.6532 5.79991 44.8596 5.64188C45.6083 5.06867 46.5157 4.73299 47.4928 4.73299C49.4161 4.73299 51.0651 6.03253 51.7724 7.88565L59.0538 26.9783L59.0547 26.9773Z" fill="white"/>
<path d="M70.5801 0.00195312C70.111 0.00195312 69.6383 0.303281 69.4293 0.84999L63.3058 16.9077C63.2635 17.0177 63.2432 17.1315 63.2432 17.2444C63.2432 17.3543 63.2643 17.4711 63.3058 17.5811L65.23 22.6271C65.2776 22.7527 65.3816 22.8165 65.4857 22.8165C65.5898 22.8165 65.6929 22.7517 65.7414 22.6261L71.9435 6.36419L79.8043 26.9762C80.0133 27.5219 80.4851 27.8242 80.9551 27.8242H84.367C84.5054 27.8242 84.6165 27.6996 84.6165 27.5465C84.6165 27.5082 84.6095 27.4709 84.5962 27.4375L74.4559 0.84999C74.2469 0.303281 73.7742 0.00195312 73.3051 0.00195312H70.5801Z" fill="white"/>
<path d="M90.1771 0.850081C90.3852 0.303372 90.8579 0.00204388 91.327 0.00204388H94.7389C94.8774 0.00204388 94.9885 0.126697 94.9885 0.279815C94.9885 0.318095 94.9814 0.355393 94.9682 0.388764L86.4875 22.6262C86.4398 22.7518 86.3358 22.8166 86.2317 22.8166C86.1277 22.8166 86.0245 22.7518 85.976 22.6272L84.0518 17.5811C84.0095 17.4712 83.9892 17.3574 83.9892 17.2464C83.9892 17.1326 84.0104 17.0168 84.0518 16.9068L90.1771 0.850081Z" fill="white"/>
<path d="M109.675 24.075C109.675 23.3595 109.657 23.2584 109.643 22.6764C109.761 22.6999 109.856 22.7117 109.927 22.7117C109.998 22.7117 110.094 22.6999 110.211 22.6764C111.839 24.6875 112.804 25.8457 112.951 26.0234V25.4119C112.951 24.5138 112.954 22.9394 112.907 22.6774C113.025 22.7009 113.119 22.7127 113.191 22.7127C113.262 22.7127 113.357 22.7009 113.475 22.6774C113.374 24.7052 113.373 25.7201 113.373 26.6633V27.5074C113.289 27.4976 113.203 27.4937 113.114 27.4937C113.025 27.4937 112.939 27.4986 112.868 27.5074C112 26.3826 111.082 25.2509 110.11 24.1114C110.104 24.2763 110.097 24.5638 110.097 24.9339C110.097 25.9134 110.091 26.9774 110.135 27.5074C110.044 27.4908 109.995 27.4937 109.838 27.4937C109.741 27.4937 109.644 27.4986 109.548 27.5074C109.575 27.3857 109.674 25.4472 109.674 24.076L109.675 24.075ZM118.011 27.5065C117.826 27.4888 117.737 27.4927 117.455 27.4927C117.174 27.4927 117.08 27.4898 116.918 27.5065C116.851 27.2768 116.782 27.0422 116.71 26.8037C116.639 26.5642 116.563 26.3257 116.483 26.0862C116.117 26.0734 115.838 26.0724 115.674 26.0724C115.542 26.0724 115.314 26.0744 115.017 26.0862C114.932 26.3257 114.855 26.5642 114.783 26.8037C114.712 27.0432 114.647 27.2768 114.588 27.5065C114.497 27.4898 114.452 27.4927 114.29 27.4927C114.129 27.4927 114.082 27.4898 113.975 27.5065C114.208 26.944 114.49 26.1765 114.78 25.3942C114.895 25.0821 115.012 24.767 115.127 24.449C115.521 23.3654 115.645 23.0179 115.775 22.643C115.908 22.6724 115.953 22.6764 116.014 22.6764C116.076 22.6764 116.123 22.6724 116.254 22.643C116.389 23.0415 116.533 23.4665 116.687 23.9209C116.841 24.3754 116.996 24.822 117.151 25.2607C117.715 26.8449 117.91 27.2856 118.01 27.5074L118.011 27.5065ZM115.775 23.9985C115.666 24.2802 115.563 24.557 115.466 24.8318C115.369 25.1056 115.275 25.3864 115.182 25.672H116.338C116.245 25.3864 116.154 25.1056 116.063 24.8318C115.972 24.558 115.877 24.2802 115.775 23.9985ZM129.073 24.076C129.073 23.3605 129.055 23.2594 129.041 22.6774C129.159 22.7009 129.254 22.7127 129.325 22.7127C129.396 22.7127 129.492 22.7009 129.609 22.6774C131.237 24.6885 132.202 25.8467 132.349 26.0244V25.4129C132.349 24.5148 132.352 22.9404 132.305 22.6783C132.423 22.7019 132.517 22.7137 132.589 22.7137C132.66 22.7137 132.755 22.7019 132.873 22.6783C132.772 24.7062 132.771 25.7211 132.771 26.6643V27.5084C132.687 27.4986 132.601 27.4947 132.512 27.4947C132.423 27.4947 132.337 27.4996 132.266 27.5084C131.398 26.3836 130.48 25.2519 129.508 24.1123C129.502 24.2772 129.495 24.5648 129.495 24.9349C129.495 25.9144 129.489 26.9784 129.533 27.5084C129.442 27.4917 129.393 27.4947 129.236 27.4947C129.139 27.4947 129.042 27.4996 128.946 27.5084C128.973 27.3867 129.072 25.4482 129.072 24.077L129.073 24.076ZM137.409 27.5074C137.224 27.4898 137.135 27.4937 136.853 27.4937C136.572 27.4937 136.478 27.4908 136.316 27.5074C136.249 27.2778 136.18 27.0432 136.108 26.8047C136.037 26.5652 135.961 26.3267 135.881 26.0872C135.515 26.0744 135.236 26.0734 135.072 26.0734C134.94 26.0734 134.712 26.0754 134.415 26.0872C134.33 26.3267 134.253 26.5652 134.181 26.8047C134.11 27.0442 134.045 27.2778 133.986 27.5074C133.895 27.4908 133.85 27.4937 133.688 27.4937C133.527 27.4937 133.48 27.4908 133.373 27.5074C133.606 26.945 133.888 26.1775 134.178 25.3952C134.293 25.0831 134.41 24.768 134.525 24.45C134.919 23.3664 135.043 23.0189 135.173 22.644C135.306 22.6734 135.351 22.6774 135.412 22.6774C135.474 22.6774 135.521 22.6734 135.652 22.644C135.787 23.0425 135.931 23.4675 136.085 23.9219C136.239 24.3764 136.394 24.823 136.549 25.2617C137.113 26.8459 137.308 27.2866 137.408 27.5084L137.409 27.5074ZM135.173 23.9995C135.064 24.2812 134.961 24.558 134.864 24.8328C134.767 25.1066 134.673 25.3873 134.58 25.673H135.736C135.643 25.3873 135.552 25.1066 135.461 24.8328C135.37 24.5589 135.275 24.2812 135.173 23.9995ZM118.889 23.2054C118.826 23.2054 118.245 23.2182 117.73 23.2967C117.755 23.1406 117.761 23.0651 117.761 22.9875C117.761 22.91 117.755 22.8344 117.73 22.6783C118.026 22.6882 118.537 22.7137 119.376 22.7137C120.215 22.7137 120.729 22.6882 120.985 22.6783C120.956 22.8491 120.953 22.9257 120.953 22.9875C120.953 23.0494 120.956 23.1269 120.985 23.2967C120.584 23.23 120.017 23.2054 119.857 23.2054C119.841 23.2947 119.844 23.4704 119.844 23.8238V25.5817C119.844 26.2658 119.857 26.8528 119.895 27.5084C119.764 27.4907 119.68 27.4947 119.377 27.4947C119.074 27.4947 118.99 27.4917 118.859 27.5084C118.898 26.839 118.91 26.253 118.91 25.5817V23.8238C118.91 23.3654 118.901 23.2653 118.891 23.2054H118.889ZM121.657 22.6783C121.889 22.7088 122.051 22.7137 122.178 22.7137C122.305 22.7137 122.461 22.7088 122.694 22.6783C122.656 23.3772 122.645 23.9514 122.645 24.6257V25.5817C122.645 26.2658 122.656 26.8528 122.694 27.5084C122.564 27.4907 122.482 27.4947 122.178 27.4947C121.873 27.4947 121.788 27.4917 121.657 27.5084C121.695 26.839 121.709 26.253 121.709 25.5817V24.6257C121.709 24.0436 121.699 23.4498 121.657 22.6783ZM123.457 25.1037C123.457 23.9347 124.226 22.5812 125.881 22.5812C127.012 22.5812 128.274 23.2074 128.274 25.0958C128.274 26.2805 127.474 27.6036 125.862 27.6036C123.391 27.6036 123.457 25.3186 123.457 25.1037ZM127.239 24.9555C127.239 23.5509 126.533 22.9895 125.862 22.9895C124.922 22.9895 124.493 24.1006 124.493 25.1734C124.493 26.7075 125.135 27.1953 125.818 27.1953C125.847 27.1953 127.239 27.2709 127.239 24.9555ZM137.908 22.6783C138.141 22.7088 138.3 22.7137 138.426 22.7137C138.552 22.7137 138.711 22.7088 138.943 22.6783C138.905 23.3772 138.893 23.9514 138.893 24.6257V25.5817C138.893 26.0077 138.896 26.576 138.905 27.002C139.637 27.002 140.141 26.9401 140.36 26.9107C140.338 27.0412 140.334 27.107 140.334 27.2267C140.334 27.3465 140.339 27.4407 140.36 27.5084C140.023 27.4947 139.527 27.4947 139.247 27.4947H138.622C138.168 27.4947 138.028 27.4917 137.908 27.5084C137.947 26.839 137.958 26.253 137.958 25.5817V24.6257C137.958 24.0436 137.95 23.4498 137.908 22.6783ZM143.389 25.9331C143.355 26.4582 143.331 26.9833 143.297 27.5084C143.206 27.4917 143.157 27.4947 143 27.4947C142.843 27.4947 142.794 27.4917 142.703 27.5084C142.838 26.7026 142.948 25.9007 143.054 25.1037C143.159 24.3067 143.256 23.4979 143.344 22.6783C143.493 22.7088 143.534 22.7137 143.603 22.7137C143.654 22.7137 143.704 22.7088 143.856 22.6783C144.026 23.0984 144.161 23.4194 144.585 24.4048C144.693 24.6532 144.9 25.1331 145.315 26.0391C145.568 25.514 145.819 24.9643 146.07 24.3901C146.32 23.8159 146.559 23.2457 146.787 22.6783C146.891 22.7019 146.982 22.7137 147.058 22.7137C147.13 22.7137 147.218 22.7019 147.324 22.6783C147.326 22.7068 147.537 24.7248 147.601 25.3393C147.636 25.669 147.762 26.8586 147.867 27.5084C147.714 27.4917 147.627 27.4947 147.355 27.4947C147.084 27.4947 146.989 27.4917 146.831 27.5084C146.809 27.0255 146.775 26.5033 146.727 25.9409C146.678 25.3785 146.629 24.821 146.578 24.2674H146.566C146.326 24.821 146.09 25.3638 145.859 25.8987C145.627 26.4327 145.398 26.9696 145.17 27.5084C145.111 27.4957 145.074 27.4947 145.05 27.4947C145.02 27.4947 144.984 27.4966 144.93 27.5084C144.703 26.9833 144.476 26.4582 144.251 25.9331C144.025 25.408 143.794 24.876 143.553 24.3371H143.54C143.473 24.876 143.422 25.408 143.389 25.9331ZM165.13 25.9331C165.096 26.4582 165.072 26.9833 165.038 27.5084C164.947 27.4917 164.898 27.4947 164.741 27.4947C164.584 27.4947 164.535 27.4917 164.444 27.5084C164.579 26.7026 164.689 25.9007 164.795 25.1037C164.9 24.3067 164.997 23.4979 165.085 22.6783C165.234 22.7088 165.275 22.7137 165.344 22.7137C165.395 22.7137 165.446 22.7088 165.597 22.6783C165.767 23.0984 165.902 23.4194 166.327 24.4048C166.434 24.6532 166.641 25.1331 167.056 26.0391C167.309 25.514 167.56 24.9643 167.811 24.3901C168.061 23.8159 168.3 23.2457 168.528 22.6783C168.633 22.7019 168.723 22.7137 168.799 22.7137C168.871 22.7137 168.959 22.7019 169.065 22.6783C169.067 22.7068 169.278 24.7248 169.342 25.3393C169.377 25.669 169.503 26.8586 169.608 27.5084C169.455 27.4917 169.368 27.4947 169.096 27.4947C168.825 27.4947 168.73 27.4917 168.572 27.5084C168.551 27.0255 168.516 26.5033 168.468 25.9409C168.419 25.3785 168.37 24.821 168.319 24.2674H168.307C168.067 24.821 167.831 25.3638 167.6 25.8987C167.368 26.4327 167.139 26.9696 166.911 27.5084C166.852 27.4957 166.815 27.4947 166.791 27.4947C166.761 27.4947 166.725 27.4966 166.671 27.5084C166.444 26.9833 166.217 26.4582 165.992 25.9331C165.767 25.408 165.535 24.876 165.294 24.3371H165.282C165.215 24.876 165.163 25.408 165.13 25.9331ZM150.583 27.6046C149.652 27.6046 148.661 27.2218 148.661 25.7711C148.661 25.6474 148.669 24.5599 148.671 24.4912C148.678 24.0878 148.675 23.0464 148.649 22.6774C148.986 22.7156 149.136 22.7127 149.167 22.7127C149.198 22.7127 149.35 22.7147 149.684 22.6774C149.642 23.1318 149.617 23.5548 149.608 23.9465C149.6 24.3381 149.596 24.7346 149.596 25.138C149.596 26.8901 150.071 27.1345 150.861 27.1345C151.911 27.1345 151.945 25.7868 151.945 24.611C151.945 24.2213 151.94 23.547 151.895 22.6774C152.102 22.7107 152.168 22.7127 152.217 22.7127C152.296 22.7127 152.36 22.7078 152.533 22.6774C152.511 22.9433 152.451 24.1339 152.451 25.3137C152.451 26.256 152.275 27.6046 150.583 27.6046ZM161.909 27.6046C160.978 27.6046 159.988 27.2218 159.988 25.7711C159.988 25.6474 159.996 24.5599 159.997 24.4912C160.005 24.0878 160.002 23.0464 159.975 22.6774C160.312 22.7156 160.462 22.7127 160.493 22.7127C160.524 22.7127 160.677 22.7147 161.011 22.6774C160.968 23.1318 160.944 23.5548 160.935 23.9465C160.926 24.3381 160.923 24.7346 160.923 25.138C160.923 26.8901 161.397 27.1345 162.187 27.1345C163.237 27.1345 163.272 25.7868 163.272 24.611C163.272 24.2213 163.266 23.547 163.222 22.6774C163.429 22.7107 163.494 22.7127 163.543 22.7127C163.623 22.7127 163.686 22.7078 163.859 22.6774C163.837 22.9433 163.777 24.1339 163.777 25.3137C163.777 26.256 163.602 27.6046 161.909 27.6046ZM154.676 23.0179C154.296 23.0179 154.019 23.3036 154.019 23.652C154.019 24.0005 154.167 24.2282 154.98 24.6345C155.963 25.1272 155.94 25.833 155.94 26.0332C155.94 26.8744 155.388 27.6046 154.266 27.6046C153.796 27.6046 153.426 27.475 153.25 27.3229C153.292 27.159 153.327 27.0078 153.357 26.8724C153.386 26.736 153.412 26.5887 153.433 26.4287H153.553C153.597 26.6987 153.807 27.1894 154.424 27.1894C155.154 27.1894 155.163 26.5534 155.163 26.4709C155.163 26.0921 154.974 25.8575 154.222 25.4816C153.253 24.9967 153.281 24.2871 153.281 24.0898C153.281 22.8707 154.235 22.5821 154.702 22.5821C155.079 22.5821 155.447 22.6705 155.738 22.9276C155.7 23.0356 155.668 23.1406 155.64 23.2408C155.613 23.3418 155.579 23.4694 155.536 23.6245H155.442C155.307 23.2211 155.052 23.0189 154.677 23.0189L154.676 23.0179ZM156.634 22.6774C157.196 22.6911 157.3 22.7127 157.758 22.7127C158.485 22.7127 158.954 22.6921 159.086 22.6774C159.069 22.752 159.06 22.8511 159.06 22.9728C159.06 23.0945 159.064 23.1583 159.086 23.2888C159.073 23.2888 157.941 23.2044 157.651 23.2044C157.634 23.4626 157.624 23.7178 157.623 23.971C157.621 24.2242 157.619 24.4794 157.619 24.7376C157.843 24.7337 158.271 24.7278 159.06 24.6816C159.035 24.8357 159.028 24.9015 159.028 24.9977C159.028 25.0791 159.037 25.086 159.06 25.2862C158.58 25.244 158.094 25.2234 157.619 25.2234C157.619 25.3736 157.618 25.5238 157.616 25.673C157.607 26.2629 157.617 26.6722 157.632 27.002C158.363 27.002 158.867 26.9401 159.086 26.9107C159.064 27.0412 159.06 27.107 159.06 27.2267C159.06 27.3465 159.065 27.4407 159.086 27.5084C158.749 27.4947 158.253 27.4947 157.973 27.4947H156.972C156.824 27.4947 156.718 27.4966 156.634 27.5084C156.673 26.839 156.684 26.253 156.684 25.5817V24.6257C156.684 24.0436 156.676 23.4488 156.634 22.6774ZM171.693 25.1027C171.693 23.9337 172.462 22.5802 174.117 22.5802C175.247 22.5802 176.509 23.2064 176.509 25.0948C176.509 26.2795 175.709 27.6026 174.097 27.6026C171.626 27.6026 171.693 25.3177 171.693 25.1027ZM175.474 24.9545C175.474 23.5499 174.768 22.9885 174.097 22.9885C173.157 22.9885 172.728 24.0996 172.728 25.1724C172.728 26.7065 173.371 27.1943 174.053 27.1943C174.082 27.1943 175.474 27.2699 175.474 24.9545ZM177.182 22.6774C177.744 22.6911 177.848 22.7127 178.306 22.7127C179.033 22.7127 179.502 22.6921 179.634 22.6774C179.617 22.752 179.608 22.8511 179.608 22.9728C179.608 23.0945 179.612 23.1583 179.634 23.2888C179.621 23.2888 178.489 23.2044 178.199 23.2044C178.182 23.4626 178.172 23.7178 178.171 23.971C178.169 24.2242 178.167 24.4794 178.167 24.7376C178.391 24.7337 178.819 24.7278 179.608 24.6816C179.583 24.8357 179.576 24.9015 179.576 24.9977C179.576 25.0791 179.585 25.086 179.608 25.2862C179.128 25.244 178.642 25.2234 178.167 25.2234V25.5817C178.167 26.2658 178.179 26.8528 178.217 27.5084C178.087 27.4907 178.003 27.4947 177.7 27.4947C177.396 27.4947 177.313 27.4917 177.182 27.5084C177.221 26.839 177.232 26.253 177.232 25.5817V24.6257C177.232 24.0436 177.224 23.4488 177.182 22.6774ZM197.448 22.6774C197.681 22.7078 197.839 22.7127 197.965 22.7127C198.092 22.7127 198.25 22.7078 198.483 22.6774C198.444 23.3762 198.433 23.9504 198.433 24.6247V25.5807C198.433 26.0067 198.435 26.575 198.445 27.001C199.176 27.001 199.681 26.9391 199.899 26.9097C199.878 27.0402 199.874 27.106 199.874 27.2257C199.874 27.3455 199.879 27.4397 199.899 27.5074C199.562 27.4937 199.067 27.4937 198.786 27.4937H198.161C197.708 27.4937 197.568 27.4908 197.448 27.5074C197.487 26.838 197.498 26.2521 197.498 25.5807V24.6247C197.498 24.0427 197.49 23.4488 197.448 22.6774ZM188.097 25.1027C188.097 23.9337 188.866 22.5802 190.521 22.5802C191.651 22.5802 192.913 23.2064 192.913 25.0948C192.913 26.2795 192.114 27.6026 190.502 27.6026C188.031 27.6026 188.097 25.3177 188.097 25.1027ZM191.878 24.9545C191.878 23.5499 191.173 22.9885 190.502 22.9885C189.561 22.9885 189.132 24.0996 189.132 25.1724C189.132 26.7065 189.775 27.1943 190.457 27.1943C190.487 27.1943 191.878 27.2699 191.878 24.9545ZM184.252 25.7917C184.088 26.3031 183.873 26.9902 183.725 27.5074C183.628 27.4976 183.52 27.4937 183.403 27.4937C183.224 27.4937 183.172 27.4908 183.075 27.5074C183.033 27.3367 182.866 26.6447 182.645 25.7917C182.557 25.4492 182.466 25.1037 182.374 24.7543C182.289 24.4343 181.842 22.7794 181.805 22.6764C182.082 22.7048 182.21 22.7117 182.336 22.7117C182.411 22.7117 182.545 22.7107 182.847 22.6764C183.023 23.5146 183.2 24.2566 183.267 24.5364C183.409 25.1282 183.609 25.9596 183.674 26.2275H183.687C184 25.2283 184.15 24.7415 184.299 24.2556C184.598 23.28 184.705 22.9178 184.773 22.6774C184.946 22.7068 185.01 22.7127 185.089 22.7127C185.167 22.7127 185.232 22.7078 185.404 22.6774C185.433 22.8481 185.491 23.1033 185.856 24.3361C186.08 25.0919 186.278 25.7201 186.403 26.2275H186.415C186.561 25.7162 186.648 25.3834 186.958 24.2164C187.212 23.2614 187.303 22.8982 187.35 22.6764C187.455 22.6999 187.544 22.7117 187.615 22.7117C187.687 22.7117 187.755 22.7048 187.905 22.6764C187.837 22.8825 187.576 23.7138 187.274 24.7219C187.177 25.0448 187.08 25.3707 186.984 25.6995C186.716 26.6074 186.563 27.1462 186.466 27.5065C186.369 27.4966 186.262 27.4927 186.144 27.4927C185.966 27.4927 185.913 27.4898 185.816 27.5065C185.681 26.9342 185.529 26.3659 185.359 25.8015C185.188 25.2372 185.008 24.661 184.819 24.075H184.807C184.61 24.6964 184.518 24.9633 184.254 25.7908L184.252 25.7917ZM194.571 25.2921V25.5807C194.571 26.2648 194.584 26.8518 194.621 27.5074C194.491 27.4898 194.407 27.4937 194.104 27.4937C193.8 27.4937 193.717 27.4908 193.586 27.5074C193.625 26.838 193.636 26.2521 193.636 25.5807V24.6247C193.636 24.0427 193.629 23.4488 193.586 22.6774C193.819 22.7078 193.978 22.7127 194.104 22.7127C194.447 22.7127 194.487 22.6774 195.032 22.6774C195.505 22.6774 196.54 22.6764 196.54 23.8444C196.54 24.1869 196.456 24.4657 196.287 24.6806C196.119 24.8966 195.876 25.0487 195.561 25.138C195.763 25.5365 195.98 25.9341 196.211 26.3296C196.443 26.7261 196.674 27.1178 196.905 27.5074C196.733 27.4908 196.647 27.4937 196.337 27.4937C196.026 27.4937 195.935 27.4908 195.762 27.5074L194.628 25.2931L194.571 25.2921ZM195.574 23.9985C195.574 23.492 195.454 23.3193 195.344 23.229C195.266 23.1662 195.16 23.1249 195.036 23.1063C194.912 23.0876 194.763 23.0778 194.591 23.0778C194.578 23.7148 194.572 24.3528 194.572 24.9898C194.598 24.9947 194.621 24.9977 194.644 25.0006C194.667 25.0026 194.689 25.0045 194.711 25.0045C195.527 25.0045 195.574 24.3008 195.574 23.9985ZM200.601 24.6247C200.601 24.0427 200.593 23.4488 200.551 22.6774C200.784 22.7078 200.943 22.7127 201.069 22.7127C201.48 22.7127 201.515 22.6774 202.212 22.6774C203.522 22.6774 204.63 23.0876 204.63 24.9623C204.63 26.9509 203.226 27.5074 202.458 27.5074C202.143 27.5074 201.873 27.5055 201.65 27.5006C201.427 27.4957 201.233 27.4937 201.069 27.4937C200.765 27.4937 200.682 27.4908 200.551 27.5074C200.59 26.838 200.601 26.2521 200.601 25.5807V24.6247ZM201.542 27.107C201.823 27.1276 201.983 27.1276 202.098 27.1276C203.029 27.1276 203.631 26.4386 203.631 24.9476C203.631 23.8149 203.082 23.0778 202.199 23.0778C201.971 23.0778 201.852 23.0827 201.542 23.1132C201.542 23.2859 201.536 23.0651 201.536 24.4843V25.7358C201.536 27.1718 201.542 26.9185 201.542 27.107ZM225.065 24.077C225.065 23.3615 225.047 23.2604 225.033 22.6783C225.151 22.7019 225.245 22.7137 225.317 22.7137C225.388 22.7137 225.484 22.7019 225.601 22.6783C227.229 24.6895 228.195 25.8477 228.342 26.0253V25.4138C228.342 24.5158 228.345 22.9414 228.298 22.6793C228.417 22.7029 228.511 22.7147 228.582 22.7147C228.654 22.7147 228.749 22.7029 228.866 22.6793C228.766 24.7071 228.765 25.722 228.765 26.6653V27.5094C228.68 27.4996 228.595 27.4957 228.506 27.4957C228.417 27.4957 228.331 27.5006 228.26 27.5094C227.392 26.3846 226.472 25.2529 225.499 24.1133C225.494 24.2782 225.487 24.5658 225.487 24.9358C225.487 25.9154 225.481 26.9794 225.525 27.5094C225.434 27.4927 225.385 27.4957 225.228 27.4957C225.131 27.4957 225.034 27.5006 224.938 27.5094C224.965 27.3877 225.064 25.4492 225.064 24.078L225.065 24.077ZM220.11 23.2054C220.046 23.2054 219.465 23.2182 218.95 23.2967C218.975 23.1406 218.982 23.0651 218.982 22.9875C218.982 22.91 218.975 22.8344 218.95 22.6783C219.246 22.6882 219.758 22.7137 220.596 22.7137C221.435 22.7137 221.949 22.6882 222.205 22.6783C222.177 22.8491 222.173 22.9257 222.173 22.9875C222.173 23.0494 222.177 23.1269 222.205 23.2967C221.804 23.23 221.237 23.2054 221.077 23.2054C221.061 23.2947 221.065 23.4704 221.065 23.8238V25.5817C221.065 26.2658 221.077 26.8528 221.115 27.5084C220.984 27.4907 220.901 27.4947 220.597 27.4947C220.294 27.4947 220.21 27.4917 220.08 27.5084C220.118 26.839 220.13 26.253 220.13 25.5817V23.8238C220.13 23.3654 220.121 23.2653 220.111 23.2054H220.11ZM222.877 22.6783C223.11 22.7088 223.271 22.7137 223.398 22.7137C223.525 22.7137 223.681 22.7088 223.915 22.6783C223.876 23.3772 223.865 23.9514 223.865 24.6257V25.5817C223.865 26.2658 223.876 26.8528 223.915 27.5084C223.784 27.4907 223.702 27.4947 223.398 27.4947C223.094 27.4947 223.008 27.4917 222.877 27.5084C222.916 26.839 222.93 26.253 222.93 25.5817V24.6257C222.93 24.0436 222.919 23.4498 222.877 22.6783ZM217.214 22.6783C217.446 22.7088 217.608 22.7137 217.735 22.7137C217.862 22.7137 218.018 22.7088 218.251 22.6783C218.213 23.3772 218.202 23.9514 218.202 24.6257V25.5817C218.202 26.2658 218.213 26.8528 218.251 27.5084C218.121 27.4907 218.039 27.4947 217.735 27.4947C217.43 27.4947 217.345 27.4917 217.214 27.5084C217.252 26.839 217.266 26.253 217.266 25.5817V24.6257C217.266 24.0436 217.256 23.4498 217.214 22.6783ZM209.116 25.7927C208.952 26.3041 208.737 26.9912 208.589 27.5084C208.492 27.4986 208.384 27.4947 208.267 27.4947C208.089 27.4947 208.036 27.4917 207.939 27.5084C207.898 27.3376 207.73 26.6457 207.51 25.7927C207.422 25.4502 207.331 25.1047 207.238 24.7552C207.153 24.4353 206.706 22.7804 206.669 22.6774C206.947 22.7058 207.075 22.7127 207.2 22.7127C207.276 22.7127 207.409 22.7117 207.712 22.6774C207.888 23.5156 208.064 24.2576 208.131 24.5373C208.273 25.1292 208.474 25.9606 208.539 26.2285H208.551C208.864 25.2293 209.015 24.7425 209.164 24.2566C209.462 23.281 209.57 22.9188 209.638 22.6783C209.81 22.7078 209.875 22.7137 209.953 22.7137C210.032 22.7137 210.096 22.7088 210.269 22.6783C210.297 22.8491 210.355 23.1043 210.72 24.3371C210.944 25.0929 211.143 25.7211 211.267 26.2285H211.28C211.425 25.7171 211.512 25.3844 211.823 24.2174C212.077 23.2623 212.168 22.8992 212.214 22.6774C212.319 22.7009 212.408 22.7127 212.48 22.7127C212.551 22.7127 212.619 22.7058 212.77 22.6774C212.702 22.8835 212.44 23.7148 212.139 24.7229C212.042 25.0458 211.945 25.3716 211.848 25.7005C211.58 26.6084 211.428 27.1472 211.331 27.5074C211.234 27.4976 211.126 27.4937 211.009 27.4937C210.831 27.4937 210.778 27.4908 210.681 27.5074C210.546 26.9352 210.393 26.3669 210.223 25.8025C210.053 25.2382 209.872 24.662 209.683 24.076H209.671C209.474 24.6973 209.383 24.9643 209.118 25.7917L209.116 25.7927ZM214.337 25.2931V25.5817C214.337 26.2658 214.349 26.8528 214.387 27.5084C214.257 27.4907 214.173 27.4947 213.87 27.4947C213.566 27.4947 213.482 27.4917 213.352 27.5084C213.391 26.839 213.402 26.253 213.402 25.5817V24.6257C213.402 24.0436 213.394 23.4498 213.352 22.6783C213.585 22.7088 213.743 22.7137 213.87 22.7137C214.213 22.7137 214.253 22.6783 214.798 22.6783C215.271 22.6783 216.306 22.6774 216.306 23.8454C216.306 24.1879 216.221 24.4667 216.053 24.6816C215.885 24.8976 215.642 25.0497 215.326 25.139C215.528 25.5375 215.745 25.935 215.977 26.3306C216.209 26.7271 216.439 27.1188 216.671 27.5084C216.498 27.4917 216.413 27.4947 216.102 27.4947C215.792 27.4947 215.7 27.4917 215.527 27.5084L214.393 25.2941L214.337 25.2931ZM215.34 23.9995C215.34 23.493 215.22 23.3203 215.109 23.23C215.032 23.1671 214.926 23.1259 214.802 23.1073C214.677 23.0886 214.529 23.0788 214.356 23.0788C214.344 23.7158 214.338 24.3538 214.338 24.9908C214.363 24.9957 214.387 24.9987 214.41 25.0016C214.433 25.0036 214.455 25.0055 214.476 25.0055C215.293 25.0055 215.34 24.3018 215.34 23.9995ZM232.207 23.0179C231.343 23.0179 230.617 23.8513 230.617 25.2234C230.617 26.3365 231.171 27.1894 232.15 27.1894C232.294 27.1894 232.716 27.1531 232.838 27.0628C232.849 26.9892 232.857 26.892 232.857 26.5701C232.857 25.8418 232.837 25.7505 232.813 25.3579C232.975 25.3942 233.202 25.3932 233.28 25.3932C233.411 25.3932 233.638 25.3932 233.791 25.3579C233.754 25.5218 233.745 26.1451 233.744 26.1853C233.742 26.31 233.74 26.4287 233.74 26.5406C233.74 27.0402 233.74 27.2257 233.759 27.316C232.86 27.6046 232.245 27.6046 232.074 27.6046C230.404 27.6046 229.581 26.5043 229.581 25.2656C229.581 23.2437 230.968 22.5812 232.193 22.5812C232.51 22.5812 233.025 22.591 233.715 23.0042C233.681 23.1259 233.649 23.2466 233.617 23.3634C233.585 23.4812 233.559 23.601 233.538 23.7227H233.45C233.119 23.2035 232.682 23.0179 232.207 23.0179ZM247.188 23.2054C247.125 23.2054 246.544 23.2182 246.029 23.2967C246.054 23.1406 246.061 23.0651 246.061 22.9875C246.061 22.91 246.054 22.8344 246.029 22.6783C246.325 22.6882 246.837 22.7137 247.675 22.7137C248.514 22.7137 249.028 22.6882 249.284 22.6783C249.255 22.8491 249.252 22.9257 249.252 22.9875C249.252 23.0494 249.255 23.1269 249.284 23.2967C248.883 23.23 248.316 23.2054 248.156 23.2054C248.14 23.2947 248.143 23.4704 248.143 23.8238V25.5817C248.143 26.2658 248.156 26.8528 248.194 27.5084C248.063 27.4907 247.979 27.4947 247.676 27.4947C247.373 27.4947 247.289 27.4917 247.158 27.5084C247.197 26.839 247.209 26.253 247.209 25.5817V23.8238C247.209 23.3654 247.2 23.2653 247.19 23.2054H247.188ZM253.701 25.9331C253.667 26.4582 253.643 26.9833 253.609 27.5084C253.518 27.4917 253.469 27.4947 253.312 27.4947C253.155 27.4947 253.106 27.4917 253.015 27.5084C253.15 26.7026 253.26 25.9007 253.366 25.1037C253.471 24.3067 253.568 23.4979 253.656 22.6783C253.805 22.7088 253.846 22.7137 253.915 22.7137C253.966 22.7137 254.017 22.7088 254.168 22.6783C254.338 23.0984 254.473 23.4194 254.898 24.4048C255.005 24.6532 255.212 25.1331 255.627 26.0391C255.88 25.514 256.131 24.9643 256.382 24.3901C256.632 23.8159 256.871 23.2457 257.099 22.6783C257.204 22.7019 257.294 22.7137 257.37 22.7137C257.442 22.7137 257.53 22.7019 257.636 22.6783C257.638 22.7068 257.849 24.7248 257.913 25.3393C257.948 25.669 258.074 26.8586 258.179 27.5084C258.026 27.4917 257.939 27.4947 257.667 27.4947C257.396 27.4947 257.301 27.4917 257.143 27.5084C257.122 27.0255 257.087 26.5033 257.039 25.9409C256.99 25.3785 256.941 24.821 256.891 24.2674H256.878C256.638 24.821 256.402 25.3638 256.171 25.8987C255.939 26.4327 255.71 26.9696 255.482 27.5084C255.423 27.4957 255.386 27.4947 255.362 27.4947C255.332 27.4947 255.296 27.4966 255.242 27.5084C255.015 26.9833 254.788 26.4582 254.563 25.9331C254.338 25.408 254.106 24.876 253.865 24.3371H253.853C253.786 24.876 253.734 25.408 253.701 25.9331ZM260.171 23.0179C259.791 23.0179 259.514 23.3036 259.514 23.652C259.514 24.0005 259.661 24.2282 260.474 24.6345C261.458 25.1272 261.435 25.833 261.435 26.0332C261.435 26.8744 260.883 27.6046 259.761 27.6046C259.291 27.6046 258.921 27.475 258.744 27.3229C258.786 27.159 258.822 27.0078 258.852 26.8724C258.881 26.736 258.906 26.5887 258.928 26.4287H259.048C259.092 26.6987 259.302 27.1894 259.919 27.1894C260.649 27.1894 260.658 26.5534 260.658 26.4709C260.658 26.0921 260.468 25.8575 259.717 25.4816C258.748 24.9967 258.776 24.2871 258.776 24.0898C258.776 22.8707 259.729 22.5821 260.197 22.5821C260.574 22.5821 260.942 22.6705 261.233 22.9276C261.195 23.0356 261.162 23.1406 261.135 23.2408C261.108 23.3418 261.073 23.4694 261.031 23.6245H260.936C260.802 23.2211 260.547 23.0189 260.172 23.0189L260.171 23.0179ZM237.693 23.0179C237.313 23.0179 237.036 23.3036 237.036 23.652C237.036 24.0005 237.183 24.2282 237.996 24.6345C238.979 25.1272 238.956 25.833 238.956 26.0332C238.956 26.8744 238.404 27.6046 237.283 27.6046C236.813 27.6046 236.442 27.475 236.266 27.3229C236.308 27.159 236.343 27.0078 236.373 26.8724C236.403 26.736 236.428 26.5887 236.449 26.4287H236.569C236.613 26.6987 236.823 27.1894 237.44 27.1894C238.171 27.1894 238.179 26.5534 238.179 26.4709C238.179 26.0921 237.99 25.8575 237.239 25.4816C236.269 24.9967 236.298 24.2871 236.298 24.0898C236.298 22.8707 237.251 22.5821 237.718 22.5821C238.096 22.5821 238.463 22.6705 238.754 22.9276C238.717 23.0356 238.684 23.1406 238.657 23.2408C238.629 23.3418 238.595 23.4694 238.553 23.6245H238.458C238.323 23.2211 238.068 23.0189 237.694 23.0189L237.693 23.0179ZM244.419 23.0179C244.038 23.0179 243.762 23.3036 243.762 23.652C243.762 24.0005 243.909 24.2282 244.722 24.6345C245.705 25.1272 245.682 25.833 245.682 26.0332C245.682 26.8744 245.13 27.6046 244.008 27.6046C243.538 27.6046 243.168 27.475 242.992 27.3229C243.034 27.159 243.069 27.0078 243.099 26.8724C243.128 26.736 243.154 26.5887 243.175 26.4287H243.295C243.339 26.6987 243.549 27.1894 244.166 27.1894C244.897 27.1894 244.905 26.5534 244.905 26.4709C244.905 26.0921 244.716 25.8575 243.964 25.4816C242.995 24.9967 243.023 24.2871 243.023 24.0898C243.023 22.8707 243.977 22.5821 244.444 22.5821C244.822 22.5821 245.189 22.6705 245.48 22.9276C245.442 23.0356 245.41 23.1406 245.382 23.2408C245.355 23.3418 245.321 23.4694 245.278 23.6245H245.184C245.049 23.2211 244.794 23.0189 244.419 23.0189L244.419 23.0179ZM249.957 22.6774C250.518 22.6911 250.622 22.7127 251.081 22.7127C251.808 22.7127 252.277 22.6921 252.408 22.6774C252.391 22.752 252.383 22.8511 252.383 22.9728C252.383 23.0945 252.386 23.1583 252.408 23.2888C252.396 23.2888 251.263 23.2044 250.973 23.2044C250.957 23.4626 250.947 23.7178 250.945 23.971C250.943 24.2242 250.942 24.4794 250.942 24.7376C251.166 24.7337 251.593 24.7278 252.383 24.6816C252.358 24.8357 252.351 24.9015 252.351 24.9977C252.351 25.0791 252.36 25.086 252.383 25.2862C251.903 25.244 251.417 25.2234 250.942 25.2234C250.942 25.3736 250.941 25.5238 250.938 25.673C250.929 26.2629 250.939 26.6722 250.954 27.002C251.685 27.002 252.189 26.9401 252.408 26.9107C252.387 27.0412 252.383 27.107 252.383 27.2267C252.383 27.3465 252.388 27.4407 252.408 27.5084C252.071 27.4947 251.576 27.4947 251.295 27.4947H250.294C250.146 27.4947 250.04 27.4966 249.957 27.5084C249.995 26.839 250.007 26.253 250.007 25.5817V24.6257C250.007 24.0436 249.999 23.4488 249.957 22.6774ZM241.726 23.7884C241.92 23.333 241.971 23.1848 242.181 22.6774C242.337 22.7088 242.415 22.7127 242.471 22.7127C242.549 22.7127 242.605 22.7068 242.775 22.6774C242.74 22.7421 242.606 22.9826 242.162 23.8866C241.943 24.3312 241.67 24.8868 241.448 25.3697C241.448 25.6632 241.435 25.7535 241.435 26.0587C241.435 26.2982 241.439 26.5347 241.445 26.7684C241.451 27.0029 241.469 27.2493 241.499 27.5065C241.338 27.4898 241.247 27.4927 240.962 27.4927C240.677 27.4927 240.586 27.4898 240.425 27.5065C240.485 27.1207 240.501 26.7232 240.501 26.1706C240.501 26.0401 240.499 25.8084 240.488 25.5169C240.275 25.0428 240.121 24.7415 239.72 23.8925C239.353 23.1161 239.16 22.7353 239.129 22.6764C239.458 22.7088 239.579 22.7117 239.698 22.7117C239.817 22.7117 239.926 22.7088 240.261 22.6764C240.458 23.1554 240.72 23.7521 240.772 23.8719C241.056 24.5197 241.157 24.6993 241.209 24.7857H241.221C241.308 24.6453 241.485 24.3548 241.726 23.7884Z" fill="white"/>
<path d="M119.793 11.1295V10.4199L122.983 10.6113L122.879 11.7626C122.827 12.8756 122.793 16.2148 122.827 17.1934L119.827 17.2513L119.81 12.5115L111.258 12.9335L109.792 13.2594L109.55 10.8419L110.998 10.9381L115.12 11.0343L114.999 8.54024L110.086 8.82783L108.293 9.2116L108 6.83239L109.569 6.8903H119.585L119.792 2.82286L111.377 3.20664L109.826 3.55214L109.568 1.01882L111.102 1.11501L119.879 1.30641L119.914 0.519226L123.465 0.903002L122.241 6.88932H122.793L124.603 6.7362L124.655 8.92402L122.483 8.69336L118.018 8.50098L117.863 11.0912L119.793 11.1295ZM136.715 7.4586L136.887 8.78268L126.387 10.4326L125.939 8.34099L126.526 8.30271L126.405 5.73112L126.181 4.67598L129.474 4.69561L132.715 4.61905L132.749 2.58533L127.939 2.85427L126.371 3.19977L126.129 0.935392L127.663 1.03158L132.767 1.16605L132.784 0.571247L136.456 0.993302L135.525 4.54347H135.801L135.888 6.02067L129.475 6.07858L129.492 8.05537L136.716 7.46056L136.715 7.4586ZM140.874 10.1038L140.806 11.3317C140.806 12.272 140.771 15.3226 140.806 16.3777L140.858 17.1649L137.893 17.1266V16.2246L131.394 16.4739V16.8773L128.394 17.0118L128.428 16.0332C128.428 15.2656 128.394 12.3682 128.342 11.5044L128.1 10.5641H131.445C131.393 11.1589 131.393 13.1161 131.376 14.7278L137.893 14.8043C137.875 14.2674 137.875 13.7109 137.858 13.173L131.894 13.3458L131.722 11.6193L137.842 11.7155C137.824 11.2934 137.824 10.9283 137.807 10.7369L137.704 9.94971L140.876 10.1028L140.874 10.1038ZM137.737 0.000981524L141.167 0.212009L140.926 1.86195C140.857 3.22431 140.788 7.56068 140.788 9.21062L137.84 9.07615L137.874 8.07794C137.892 7.00317 137.874 3.10849 137.84 0.9403L137.737 0.000981524ZM183.4 10.4964L178.125 10.8419L176.332 11.2257L176.039 8.76992L177.608 8.82783H190.83L192.641 8.67471L192.693 10.9391L190.521 10.7084L186.469 10.517L186.28 14.2203L183.539 14.3352L183.402 10.4974L183.4 10.4964ZM178.573 7.5597L178.125 2.12991L177.849 0.88239L181.245 1.03551L187.796 1.07379V0.518245L191.175 0.767552L190.313 7.63724L187.693 7.50277V7.11899L181.918 7.33002L181.642 5.60352L187.727 5.69971L187.761 2.6295L181.297 2.89844L181.417 7.44584L178.573 7.5597ZM181.537 12.1945L181.434 15.1498L191.553 14.9005V16.838L181.382 16.6849L181.364 16.9921L178.451 17.1649L178.278 13.442L178.088 12.1562L181.537 12.1945ZM204.927 13.8248L202.513 15.7054L199.083 8.9515C197.721 11.2542 195.963 13.9023 194.463 15.725L192.962 14.766C194.669 11.9648 196.876 6.8795 197.738 4.34717V3.04272L195.6 3.15756L193.91 3.48343L193.618 1.02766L194.945 1.10421H202.461L204.116 0.951097L204.185 3.33031L202.444 3.11928L200.065 3.00445L201.599 4.40508L200.841 5.7478C200.62 6.20323 200.358 6.70577 200.052 7.25641M207.997 9.21258C207.979 12.5704 207.979 16.1009 207.997 17.0226L205.049 17.2532L205.101 15.5071C205.153 14.0868 205.119 1.55768 205.067 0.00294457L208.342 0.271882L208.084 2.3056C208.049 2.84249 208.032 4.93412 208.015 7.39088L210.1 7.02673L210.29 9.42558L207.997 9.21455V9.21258ZM211.685 10.5553C211.703 8.94365 211.633 3.30185 211.547 1.90121L211.375 0.903002L214.634 0.999192C214.565 2.01605 214.547 5.48966 214.582 8.00237L218.272 8.07893V5.31593L215.1 5.48868L214.892 3.60808L218.272 3.72292C218.254 2.85918 218.254 2.11126 218.237 1.61264L218.082 0.691974L221.375 0.806813L221.237 2.09261C221.185 3.55115 221.134 8.32921 221.22 10.2088H218.237C218.237 10.0361 218.255 9.82506 218.255 9.61403L214.6 9.72887C214.6 9.97817 214.618 10.1892 214.618 10.3619L211.688 10.5533L211.685 10.5553ZM225.872 11.0745L225.803 12.0727C225.769 13.013 225.751 15.6033 225.786 16.467L225.838 17.158L222.787 17.2542C222.804 16.4867 222.821 14.5491 222.804 12.9757L214.857 13.3978L213.391 13.7237L213.15 11.3248L214.598 11.421L222.769 11.5359C222.769 11.2865 222.769 11.0755 222.751 10.9214L225.872 11.0745ZM222.717 10.0577L222.769 8.86807C222.803 7.4478 222.787 1.55768 222.735 0.00294457L226.096 0.213972L225.872 1.63424C225.82 2.38216 225.786 4.39723 225.751 6.33574L227.768 5.99024L227.958 8.38909L225.751 8.17806C225.734 9.00352 225.734 9.73181 225.751 10.1931L222.717 10.0577ZM233.801 14.1546V15.3059L244.007 15.0752V16.9175L233.801 16.8027V16.9941L230.508 17.1669L230.387 13.8856L230.129 12.7726L233.801 12.8109L239.887 12.7529L239.955 11.5633L231.732 11.7547L230.25 11.9079L230.008 10.1421L235.386 10.1617L235.334 8.9142L230.43 9.18314L228.637 9.56692L228.344 7.28389L229.913 7.3418H243.135L244.946 7.18868L244.998 9.28031L242.826 9.04965L238.473 8.89653L238.386 10.1823H240.042L240.059 9.76028L243.559 10.0675L242.887 12.7156H243.129L243.181 14.1742L233.803 14.1546H233.801ZM230.732 6.56738L230.284 1.90514L229.974 0.657621L233.542 0.830369L240.231 0.868649L240.249 0.331755L243.663 0.581062L242.766 6.41426L240.076 6.35635L240.094 6.03048L234.181 6.16495L233.905 4.49538L240.128 4.59157L240.197 2.34682L233.577 2.55785L233.68 6.45352L230.732 6.56738ZM257.379 10.1725C254.983 10.5759 249.983 11.1894 247.776 11.3818L246.673 12.1297H246.328L245.656 9.17431C246.398 9.17431 247.588 9.15468 248.915 9.1164L248.691 5.93135L248.38 4.72211H251.897L251.708 9.02021C253.914 8.94365 256.104 8.82881 257.276 8.73262L257.379 10.1725ZM248.294 3.15364L246.673 3.51778L246.415 1.0041L247.656 1.10029L253.742 1.17685L253.794 0.485854L257.173 0.793071L255.725 8.21928H253.174L253.605 2.80814L248.296 3.15364H248.294ZM251.659 12.1974L251.59 15.2293L261.434 14.8073V16.841L251.539 16.7448V17.0324L248.66 17.1669L248.453 13.4832L248.229 12.1974H251.659ZM257.795 13.8375L257.864 12.4555C257.881 11.0353 257.864 1.5567 257.812 0.00294457L261.139 0.213972L260.881 2.19076C260.846 2.78557 260.812 4.68481 260.794 6.79607L262.794 6.45058L262.984 8.84942L260.777 8.63839C260.777 10.8262 260.777 12.9169 260.812 13.6844L257.795 13.8375ZM151.255 6.37107C151.237 3.64636 151.203 1.15231 151.151 0.403406L154.047 0.614434L153.927 2.51368C153.858 4.356 153.84 14.0456 153.927 16.31L151.22 16.5593L151.289 14.8132V14.4873L149.028 15.6386L146.907 9.23025C145.959 11.4367 144.838 13.6815 143.649 15.6779L142.098 14.9869C143.58 11.687 145.217 6.17968 145.787 2.975L145.511 0.941282L149.338 1.17194L148.959 3.51287C148.546 5.0097 147.959 6.65964 147.27 8.36749L147.942 8.06028L151.289 14.0849C151.289 12.7029 151.289 10.2854 151.271 7.84827L149.769 7.96311L148.682 8.21241L148.475 6.27488L149.285 6.33279L151.255 6.37107ZM157.875 0.250289L157.702 1.65092C157.615 3.58845 157.53 14.4304 157.65 17.001L154.875 17.2503L154.771 0L157.875 0.250289ZM165.365 9.26853L168.041 9.28816C168.041 8.52061 168.041 7.73441 168.023 6.94723L165.916 7.02379L165.847 6.40935C165.434 7.33002 165.003 8.27032 164.52 9.21062L165.365 9.26853ZM168.022 5.37384C168.004 3.05647 167.965 1.06005 167.92 0.404388L170.816 0.615416L170.695 2.51466C170.626 4.35699 170.609 14.0466 170.695 16.311L167.989 16.5603L168.057 14.8141V10.7654L164.485 11.0147L164.295 9.63268C163.175 11.8391 161.899 13.9887 160.71 15.7917L159.175 15.0438C160.865 11.8971 163.175 5.8332 163.813 3.03193L161.468 3.22431L159.951 3.58845L159.693 1.24752L160.865 1.30543L163.899 1.38199L163.917 0.825462L167.296 1.05612C167.228 1.59301 167.124 2.68741 167.072 3.22431C166.848 3.89567 166.59 4.60629 166.296 5.31593L166.831 5.35421L168.022 5.37384ZM174.644 0.250289L174.471 1.65092C174.385 3.58845 174.299 14.4304 174.419 17.001L171.644 17.2503L171.541 0L174.644 0.250289Z" fill="white"/>
</svg>
